<?xml version="1.0" encoding="UTF-8"?>
<svg id="_图层_1" data-name="图层 1" xmlns="http://www.w3.org/2000/svg" viewBox="0 0 64 64">
  <defs>
    <style>
      .cls-1 {
        fill: #5b99d6;
      }

      .cls-2 {
        fill: #f9c626;
      }
    </style>
  </defs>
  <path class="cls-1" d="m32,.8C18.93.8,8.34,11.39,8.34,24.46c0,10.59,15.53,29.91,21.43,36.86,1.81,2.45,2.46,2.51,4.31.18,5.77-6.79,21.58-26.36,21.58-37.04C55.66,11.39,45.07.8,32,.8Zm0,39.44c-8.71,0-15.78-7.06-15.78-15.78s7.06-15.78,15.78-15.78,15.78,7.06,15.78,15.78-7.06,15.78-15.78,15.78Z"/>
  <path class="cls-2" d="m26.06,24.55c0,3.28,2.66,5.94,5.94,5.94,3.28,0,5.94-2.66,5.94-5.94h0c0-3.28-2.66-5.94-5.94-5.94-3.28,0-5.94,2.66-5.94,5.94h0Z"/>
  <path class="cls-2" d="m32.19,16.7h-.58c-.21,0-.38-.17-.38-.38v-2.11c0-.21.17-.38.38-.38h.58c.21,0,.38.17.38.38v2.11c0,.21-.17.38-.38.38Zm-5.61,1.97l-.41.41c-.15.15-.39.15-.54,0l-1.49-1.49c-.15-.15-.15-.39,0-.54l.41-.41c.15-.15.39-.15.54,0l1.49,1.49c.15.15.15.39,0,.54Zm-2.44,5.49v.58c0,.21-.17.38-.38.38h-2.11c-.21,0-.38-.17-.38-.38v-.58c0-.21.17-.38.38-.38h2.11c.21,0,.38.17.38.38Zm2.16,5.61l.41.41c.15.15.15.39,0,.54l-1.49,1.49c-.15.15-.39.15-.54,0l-.41-.41c-.15-.15-.15-.39,0-.54l1.49-1.49c.15-.15.39-.15.54,0Zm5.49,2.44h.58c.21,0,.38.17.38.38v2.11c0,.21-.17.38-.38.38h-.58c-.21,0-.38-.17-.38-.38v-2.11c0-.21.17-.38.38-.38Zm5.61-2.16l.41-.41c.15-.15.39-.15.54,0l1.49,1.49c.15.15.15.39,0,.54l-.41.41c-.15.15-.39.15-.54,0l-1.49-1.49c-.15-.15-.15-.39,0-.54Zm2.44-5.49v-.58c0-.21.17-.38.38-.38h2.11c.21,0,.38.17.38.38v.58c0,.21-.17.38-.38.38h-2.11c-.21,0-.38-.17-.38-.38Zm-2.16-5.61l-.41-.41c-.15-.15-.15-.39,0-.54l1.49-1.49c.15-.15.39-.15.54,0l.41.41c.15.15.15.39,0,.54l-1.49,1.49c-.15.15-.39.15-.54,0Z"/>
</svg>