<?xml version="1.0" standalone="no"?><!DOCTYPE svg PUBLIC "-//W3C//DTD SVG 1.1//EN" "http://www.w3.org/Graphics/SVG/1.1/DTD/svg11.dtd"><svg t="1758075648655" class="icon" viewBox="0 0 1024 1024" version="1.1" xmlns="http://www.w3.org/2000/svg" p-id="7044" xmlns:xlink="http://www.w3.org/1999/xlink" width="16" height="16"><path d="M614.942 923.829H192.031c-24.757 0-48.55-10.12-66.078-28.25-17.469-18.071-27.347-42.647-27.287-68.187V167.455c0-25.6 9.818-50.116 27.287-68.247 17.528-18.07 41.32-28.31 66.078-28.31h639.276c24.757 0 48.55 10.18 66.078 28.31 17.65 18.191 27.287 42.406 27.287 68.186l-1.446 436.465v0.12a34.997 34.997 0 0 0 34.335 35.238c18.913 0 34.334-15.661 34.575-35.117l1.385-436.525v-0.12c0-44.454-17.047-87.04-47.465-118.483A159.623 159.623 0 0 0 831.307 0H192.031C149.023 0 107.7 17.589 77.282 49.032a170.044 170.044 0 0 0-47.405 118.483v659.877c-0.06 44.394 16.987 87.04 47.405 118.423 30.42 31.442 71.68 49.091 114.749 49.031h422.851a34.936 34.936 0 0 0 34.455-35.539 34.936 34.936 0 0 0-34.395-35.478z" fill="currentColor" p-id="7045"></path><path d="M983.582 934.25L852.27 798.72c62.284-90.413 47.104-215.04-34.996-286.72a202.09 202.09 0 0 0-279.733 12.047c-76.017 78.487-81.077 204.017-11.686 288.768 69.452 84.751 190.163 100.412 277.745 36.141l131.313 135.53c13.433 13.854 35.238 13.854 48.67 0a36.322 36.322 0 0 0 0-50.237z m-299.67-116.857c-65.657 0-122.278-47.947-135.048-114.447-12.83-66.56 21.685-133.12 82.402-159.081 60.657-25.962 130.71-4.036 167.153 52.344a145.589 145.589 0 0 1-17.107 179.501 134.686 134.686 0 0 1-97.4 41.623z m103.303-497.302c18.974 0 34.334-15.963 34.334-35.539a35.057 35.057 0 0 0-34.334-35.66l-550.791-0.18a34.997 34.997 0 0 0-34.394 35.539c0 19.636 15.36 35.66 34.334 35.66l550.791 0.18zM442.971 533.083a34.214 34.214 0 0 0 29.816-17.77 36.503 36.503 0 0 0 0-35.478 34.214 34.214 0 0 0-29.816-17.77H236.484a34.936 34.936 0 0 0-34.334 35.54 34.936 34.936 0 0 0 34.334 35.417l206.487 0.06zM236.484 675.057a34.936 34.936 0 0 0-34.334 35.539c0 19.576 15.36 35.479 34.334 35.479h137.698a34.153 34.153 0 0 0 30.057-17.59 36.442 36.442 0 0 0 0-35.719 34.153 34.153 0 0 0-30.117-17.588l-137.638-0.12z" fill="currentColor" p-id="7046"></path></svg>