<?xml version="1.0" standalone="no"?><!DOCTYPE svg PUBLIC "-//W3C//DTD SVG 1.1//EN" "http://www.w3.org/Graphics/SVG/1.1/DTD/svg11.dtd"><svg t="1758588267566" class="icon" viewBox="0 0 1024 1024" version="1.1" xmlns="http://www.w3.org/2000/svg" p-id="13808" xmlns:xlink="http://www.w3.org/1999/xlink" width="16" height="16"><path d="M722.4 955.6c-16-16-16-41.9 0-57.9l188.2-188.2c16-16 41.9-16 57.9 0s16 41.9 0 57.9L780.3 955.6c-16 16-42 16-57.9 0z" fill="currentColor" p-id="13809"></path><path d="M639.2 819.3c16-16 41.9-16 57.9 0l78.4 78.4c16 16 16 41.9 0 57.9s-41.9 16-57.9 0l-78.4-78.4c-16-15.9-16-41.9 0-57.9z" fill="currentColor" p-id="13810"></path><path d="M742.8 694.1m-40.9 0a40.9 40.9 0 1 0 81.8 0 40.9 40.9 0 1 0-81.8 0Z" fill="currentColor" p-id="13811"></path><path d="M576.8 817.6m-40.9 0a40.9 40.9 0 1 0 81.8 0 40.9 40.9 0 1 0-81.8 0Z" fill="#242424" p-id="13812"></path><path d="M957.1 370.2l-261.5-38c-13.1-1.9-24.5-10.2-30.4-22.1l-117-237c-14.8-30-57.6-30-72.4 0l-117 237c-5.9 11.9-17.2 20.2-30.4 22.1l-261.5 38c-33.1 4.8-46.3 45.5-22.4 68.9l189.3 184.5c9.5 9.3 13.9 22.6 11.6 35.7l-44.7 260.5c-5.7 33 29 58.1 58.6 42.6l233.9-123c11.8-6.2 25.8-6.2 37.6 0l22.6 11.9 44.5-68.9-80-44.3c-1.7-0.9-3.7-0.9-5.4 0L308.3 845.5c-4.2 2.2-9.2-1.4-8.4-6.1L339 615c0.3-1.9-0.3-3.8-1.7-5.1l-165.2-161c-3.4-3.3-1.5-9.1 3.2-9.8l228.3-33.2c1.9-0.3 3.5-1.5 4.3-3.2L510 195.9c2.1-4.3 8.2-4.3 10.3 0l102.1 206.9c0.8 1.7 2.5 2.9 4.3 3.2L855 439.2c4.7 0.7 6.6 6.5 3.2 9.8L689 610c-1.4 1.3-2 3.2-1.7 5.1l15.3 87.9 81.2-12.8-5.3-30.8c-2.2-13.1 2.1-26.5 11.6-35.7l189.3-184.5c24.1-23.5 10.8-64.2-22.3-69z" fill="currentColor" p-id="13813"></path></svg>