<?xml version="1.0" standalone="no"?><!DOCTYPE svg PUBLIC "-//W3C//DTD SVG 1.1//EN" "http://www.w3.org/Graphics/SVG/1.1/DTD/svg11.dtd"><svg t="1758075761965" class="icon" viewBox="0 0 1024 1024" version="1.1" xmlns="http://www.w3.org/2000/svg" p-id="14741" xmlns:xlink="http://www.w3.org/1999/xlink" width="16" height="16"><path d="M893.866667 262.4c70.4 0 130.133333-55.466667 130.133333-128C1024 64 968.533333 4.266667 896 4.266667c-70.4 0-130.133333 55.466667-130.133333 128 0 19.2 4.266667 38.4 12.8 57.6 2.133333 6.4 2.133333 12.8-4.266667 19.2L704 281.6c-4.266667 4.266667-12.8 6.4-17.066667 2.133333-29.866667-14.933333-61.866667-21.333333-93.866666-21.333333-106.666667 0-198.4 76.8-217.6 181.333333-2.133333 8.533333-8.533333 12.8-14.933334 12.8h-93.866666c-6.4 0-12.8-4.266667-14.933334-10.666666-25.6-66.133333-100.266667-100.266667-166.4-74.666667C19.2 396.8-14.933333 471.466667 10.666667 537.6c25.6 66.133333 100.266667 100.266667 166.4 74.666667 36.266667-12.8 64-42.666667 76.8-81.066667 2.133333-6.4 8.533333-10.666667 14.933333-10.666667h91.733333c8.533333 0 14.933333 6.4 14.933334 12.8 21.333333 104.533333 110.933333 179.2 217.6 181.333334 19.2 0 36.266667-2.133333 55.466666-6.4 6.4-2.133333 14.933333 2.133333 17.066667 6.4l44.8 81.066666c-27.733333 25.6-42.666667 59.733333-42.666667 96 0 70.4 57.6 128 128 125.866667s128-57.6 125.866667-128c0-70.4-57.6-125.866667-125.866667-125.866667-6.4 0-12.8 0-19.2 2.133334-6.4 0-12.8-2.133333-17.066666-8.533334l-38.4-68.266666c-4.266667-6.4-2.133333-14.933333 4.266666-21.333334 98.133333-76.8 117.333333-219.733333 38.4-320-2.133333-4.266667-4.266667-6.4-8.533333-8.533333-6.4-6.4-4.266667-14.933333 0-21.333333l61.866667-64c4.266667-4.266667 12.8-6.4 17.066666-4.266667 21.333333 10.666667 40.533333 14.933333 59.733334 12.8z m0-192c36.266667 0 64 27.733333 66.133333 64 0 36.266667-27.733333 64-64 66.133333-36.266667 0-64-27.733333-66.133333-64 0-38.4 27.733333-66.133333 64-66.133333zM130.133333 556.8c-36.266667 0-64-27.733333-66.133333-64 0-36.266667 27.733333-64 64-66.133333 36.266667 0 64 27.733333 66.133333 64 0 36.266667-27.733333 66.133333-64 66.133333z m663.466667 270.933333c36.266667 0 64 27.733333 66.133333 64 0 36.266667-27.733333 64-64 66.133334-36.266667 0-64-27.733333-66.133333-64 0-36.266667 29.866667-66.133333 64-66.133334z m-42.666667-339.2c0 42.666667-17.066667 83.2-46.933333 113.066667-59.733333 61.866667-160 64-221.866667 2.133333l-2.133333-2.133333c-61.866667-64-61.866667-164.266667 0-228.266667 59.733333-61.866667 160-64 221.866667-2.133333l2.133333 2.133333c29.866667 32 46.933333 72.533333 46.933333 115.2z" p-id="14742"></path></svg>