<?xml version="1.0" standalone="no"?><!DOCTYPE svg PUBLIC "-//W3C//DTD SVG 1.1//EN" "http://www.w3.org/Graphics/SVG/1.1/DTD/svg11.dtd"><svg t="1758509150968" class="icon" viewBox="0 0 1249 1024" version="1.1" xmlns="http://www.w3.org/2000/svg" p-id="14214" xmlns:xlink="http://www.w3.org/1999/xlink" width="19.515625" height="16"><path d="M401.408 167.936c31.232-10.752 86.016-37.376 123.904-52.736-45.568 4.096-89.088 22.528-123.904 52.736z m181.248-61.952c-6.656-10.752-30.72 2.048-50.688 3.072 1.024 6.656 5.12 4.096 2.048 9.216 18.944-7.168 39.424-3.584 48.64-12.288zM390.656 175.104c1.536-1.536 11.264-3.584 3.072-8.192C321.024 220.672 266.24 286.72 237.056 369.152c15.36 1.536 18.944-23.552 17.408-33.28 3.072-0.512 3.072 3.584 5.632 3.584 22.016-49.664 53.76-94.72 92.672-132.096 10.752-9.728 28.672-15.872 38.4-27.648-0.512 1.536-3.072-2.048-0.512-4.608z m113.152-23.04c2.048 10.752-6.656 14.848-10.24 21.504 12.288-4.608 11.264 11.264 19.968 13.312 3.072-9.728 5.12-10.24 17.408-10.752-6.144-6.144-7.68-15.36-5.12-23.552-6.656 5.12-15.872 5.12-22.016-0.512zM371.712 225.792c6.144 13.312-4.096 14.848-7.68 21.504 8.704-1.024 14.848 2.048 15.36 13.824 7.168-3.072 11.264-15.36 23.04-9.728-5.12-7.68-10.24-14.848-4.608-23.552-13.824 6.144-16.896-2.048-26.112-2.048zM244.736 372.224c-16.896 3.072-16.896 17.92-15.36 32.768-6.144-3.584-2.56 1.024-6.656 3.584 0 28.16-23.04 70.144-3.072 91.648 2.048-43.52 10.752-86.528 25.088-128zM477.696 358.4c30.208-13.824 58.368-30.208 85.504-49.664-30.208 13.824-58.88 30.208-85.504 49.664z m-13.312 7.68c-35.84 14.336-70.144 33.792-100.864 57.344 34.816-17.408 68.096-36.352 100.864-57.344z m-242.688 155.648c-3.584-4.608-3.584-15.36-10.24-14.848 2.048 4.608 2.048 9.728 0.512 14.848 4.096-2.048 5.632 1.024 9.728 0z m-129.024 112.64c-11.776-1.536-23.552 4.608-28.672 15.872 4.096-1.024 24.064-5.12 28.672-15.872z m-33.792 14.336c-4.608 3.072-12.288 4.096-12.8 9.728 6.144 3.584 11.776-4.096 12.8-9.728z m-26.624 83.968c-6.656-14.336-14.336-28.672-23.04-41.984-3.584 1.024-8.704 1.024-8.704 4.608 10.24 10.24 15.36 28.672 25.088 38.912 0-4.096 5.12-2.56 6.656-1.536z m891.904-208.896c5.632-5.632 20.48-5.632 18.944-16.384-9.216 7.168-16.896 5.12-22.016 11.264 1.536 0.512 2.56 2.048 3.072 5.12z m218.624 48.128c-4.096-23.04 13.824-59.392-5.12-72.704 7.68 25.6-12.8 59.904 5.12 72.704zM83.456 825.856c-5.632-13.312-20.48-55.296-35.84-53.76 6.144 14.336 18.944 46.08 33.792 57.344 0.512 2.56 3.584 1.024 2.048-3.072v-0.512z m787.968-222.72c-31.232 21.504-70.144 37.888-100.352 59.904 40.96-14.848 68.608-38.912 105.984-56.32-0.512-2.56-1.536-5.12-5.632-3.584z m218.112-37.376c-1.536 6.656-10.24 27.648-1.536 27.136 0-8.192 8.704-20.992 1.536-27.136zM758.272 670.72c-29.696 16.384-64.512 29.696-84.992 51.712 26.624-17.92 62.464-30.208 84.992-51.712z m241.664-17.92c-3.072 4.096-0.512 14.336 7.168 10.752-1.536-4.608 1.536-5.632 0-9.728-2.56 0.512-5.632 0-7.168-1.024zM486.4 768.512c-14.336 6.144-57.344 21.504-55.808 38.4 14.336-15.872 47.104-19.456 55.808-38.4z m491.008-47.616c9.728-16.896 23.04-34.304 20.992-53.248-1.024-2.048-2.56-2.56-5.12-1.536-39.424 107.52-157.184 220.672-308.224 243.2-40.448 6.144-67.584 1.024-91.648 6.656 18.432 9.728 43.52 8.192 65.024 6.144 132.608-10.752 251.392-85.504 318.976-201.216z m-578.56 100.352c-3.072 0-3.072-3.584-5.632-3.584 0 5.12-10.752 3.584-10.24 9.216 2.048 0 3.072 1.536 3.072 4.096 5.12-2.56 12.8-3.584 12.8-9.728z" p-id="14215"></path><path d="M899.072 747.52c-14.336 2.048-18.432-11.264-26.112-18.944-1.536 14.336-13.312 11.264-23.04 17.408 11.264 5.632 9.216 17.92 5.632 28.16 11.264-10.24 23.04-1.536 32.256 0.512-8.192-17.408 6.656-19.456 11.264-27.136z m-452.608 125.44c-14.336-6.656-29.696-20.48-37.888-16.384 18.944 24.064 47.616 32.768 77.312 40.448-5.12-14.848-26.112-17.92-39.424-24.064z m353.28-95.232c-1.536 16.384-22.016 23.04-36.352 24.576 15.872 8.192 14.336 28.16 8.704 42.496 6.144-4.096 16.384-5.632 23.04-9.728 8.704 2.56 13.824 10.24 22.016 12.288-1.536-7.68 1.536-12.288-2.048-21.504 5.12-7.168 15.36-11.264 20.48-18.944-18.432 0-28.672-11.264-35.84-29.184zM254.976 907.264c-0.512-1.536-1.536-2.56-2.56-3.584 0.512 1.536 1.024 4.096 2.56 3.584z m-33.792 14.336c12.8-0.512 24.064-7.168 30.208-18.432-8.704-3.584-26.112 12.8-30.208 18.432z m508.416-80.384c-13.824 3.584-16.384-10.24-23.04-17.408-3.584 11.264-8.192 14.336-24.064 14.848 12.288 9.216 5.632 20.48 8.704 30.208 8.192-10.24 21.504-2.048 27.648 1.536-4.608-15.36 7.68-19.456 11.264-29.184h-0.512z m-353.792 68.608c3.072 13.312 14.848 12.288 23.04 17.408-3.072-13.312-15.872-11.264-23.04-17.408z m121.856-15.36c0-1.536-1.024-2.56-3.072-2.048l2.56 11.264c4.608-1.536 5.632 1.536 9.728 0l-2.56-9.728c-4.608-4.608-5.12 4.096-7.68-1.024l1.024 1.536z m-7.68 70.144c-12.8-14.336-35.84-13.824-51.712-23.552 10.752 17.92 34.816 16.896 51.712 23.552z m13.312 4.608c0-8.192-5.632-7.68-11.264-7.68-0.512 8.192 7.168 5.632 11.264 7.68z m342.016-65.536c3.584-5.12 13.312-6.656 14.336-12.8-11.264-6.656-15.36 1.536-14.336 12.8z m-302.08 69.12c2.56 10.24 15.36 5.12 23.04 7.68-2.56-10.24-15.36-5.12-23.04-7.68z m82.432 7.68c-17.92-2.048-36.352-3.584-54.784-3.584 10.752 9.216 47.616 9.728 54.784 3.584z m-158.72 25.6c-4.096-3.072-13.312 2.048-17.408-1.024 0.512 6.144 15.872 5.632 17.408 1.024z m220.16-26.112c-12.288-10.24-38.912 1.536-56.32 0 11.264 10.752 44.544 0 56.32 0zM143.36 591.872c10.24-23.04-19.456-84.992-2.56-107.52 3.072 0 3.072 3.584 5.632 3.584-3.584-9.216 7.168-19.968 0-24.576 0 2.56-2.56 6.656-4.096 3.072 4.608-19.968 12.288-38.4 6.144-65.024 10.24-44.032 31.744-80.384 43.008-124.416 4.608-4.096 8.704 1.024 5.12-10.752l9.216-2.048C235.52 206.848 282.624 159.744 337.408 117.76c4.608-2.048 9.728-2.048 14.336-0.512-9.728-8.704 15.36-20.48 18.944-13.824-0.512-2.56-2.048-5.12-4.096-6.656 15.36-5.12 27.648-20.992 43.008-18.944C502.784 17.92 655.36 15.36 742.4 38.4c0-6.656-6.656-17.92-2.048-21.504l5.12 23.552c39.424 11.264 77.824 26.112 114.688 45.056 14.848-12.8 11.264 19.968 30.208 15.872 1.024-8.192-3.584-10.24-1.536-19.456-2.048-3.584-11.264 2.56-12.8-2.048 2.56-3.072 6.144-5.632 7.68-9.216C772.096 0 592.896-29.696 421.376 38.912c-3.584 0.512-3.072-5.632-8.192-3.072-22.016 3.584-30.72 29.184-48.64 24.576 4.096 0 5.12-3.584 0-2.048-28.672 6.656-34.304 46.08-62.976 39.936C242.688 158.72 187.392 228.864 157.696 305.664c1.024-1.536 2.56-2.048 4.608-2.56 11.264 23.04-1.536 33.28-6.656 50.688-3.584-9.216-2.048-25.6-8.704-30.208-9.728 21.504 0 36.352-23.552 51.712 2.56-4.608 1.024-5.632-5.632-3.584 7.168 8.192-10.752 11.264-9.216 14.336 5.12 0 14.848-6.144 16.896-1.024-21.504 11.264-24.576 23.04-27.648 45.056 2.048 8.192 11.264 4.096 12.8 14.336-8.192 8.192-7.168 11.264-15.36 20.48 2.56 15.872 7.168 31.232 14.336 46.08 9.216 4.608-3.072 50.688 14.336 68.096-2.56 0.512-5.12 0-7.68-1.024l6.656 32.768c-3.072 5.12-14.336 4.096-12.288 12.288 9.216 5.632 15.36-8.704 18.944-13.824 1.024 9.728 8.192 0 12.288 0 0-7.68-7.168-19.456-2.56-24.064-0.512 2.048 3.584 7.68 4.096 6.656z" p-id="14216"></path><path d="M157.184 305.664c-1.024 1.024-1.536 2.56-1.536 3.584 0-1.024 1.024-2.048 1.536-3.584zM849.92 94.72c-20.48-8.704-39.936-20.48-62.464-28.672-77.824-28.16-161.28-36.352-242.688-23.04C425.472 62.464 318.464 128 246.784 225.28c-6.144 8.192-21.504 20.48-15.36 32.768 26.112-43.52 59.392-81.92 99.328-113.664 45.568-35.84 97.28-62.976 152.576-80.384 114.688-35.328 238.08-26.624 346.112 25.6 6.656 3.072 13.824 11.264 20.48 5.12z" p-id="14217"></path><path d="M528.384 390.144c-2.56 6.656-2.56 9.216-17.408 11.264-38.912 29.184-88.064 52.224-128 80.384 71.68-34.304 146.944-84.48 223.232-123.392l2.048-2.56c1.536-1.024 2.56-2.048 4.096-3.072h-1.024c4.096-2.048 9.728-3.072 10.752-7.168-6.144-4.096-13.824 9.216-17.408-1.024 19.456-0.512 31.744-25.6 54.272-23.04-12.288 12.288-27.136 10.752-34.304 24.064 23.04-14.336 50.688-26.624 69.632-44.032-9.216 4.096-26.112 14.336-34.304 11.264 64-30.72 120.832-76.288 182.784-101.376-19.968 13.312-55.296 30.72-75.776 50.176 40.96-22.016 79.36-46.08 121.344-66.56l-0.512 0.512 3.072-1.536c2.048-1.024 4.096-2.048 5.632-3.072 0.512-0.512 1.024-0.512 1.024-1.024l-1.024-2.048c70.656-33.792 130.048-74.752 195.072-111.616 5.12 8.192 7.168 22.016 16.896 23.552 5.632-11.264-12.288-33.28-20.992-42.496-39.424 25.088-82.944 47.104-122.368 71.68-24.064-20.992-40.448-31.744-62.976-47.616-2.56 7.168 1.024 15.36 8.192 17.92 2.56 1.024 5.12 1.024 8.192 0.512-7.168 14.336 26.624 25.6 23.04 51.712-9.216 0-15.872 12.288-19.968 9.216 0-5.12 8.192-4.096 7.68-8.704-17.408 7.168-34.304 18.944-55.296 28.672-44.032-28.672-97.792-58.88-152.064-71.68-17.92-4.096-39.936-10.752-57.344-3.072 71.168 17.408 153.088 35.328 196.608 84.48-57.344 29.184-109.056 62.464-164.864 93.184-4.608-24.064-18.944-32.768-25.6-53.76-21.504 8.704-36.864 21.504-57.344 31.744-15.872-13.824-32.256-26.624-49.664-38.912-14.336 16.384-25.6 34.304-40.96 50.176-12.8-3.072-31.232-14.336-43.52-8.192 8.192 6.656 17.408 11.264 27.648 13.824-7.168 6.144-18.944 9.216-23.04 17.408 18.432-5.12 30.208-23.04 46.592-12.288 10.752-16.896 23.04-32.768 36.864-47.104 4.608 8.192 16.384 5.632 18.432 18.432-63.488 34.304-123.904 70.656-186.88 104.96-1.024-8.704-6.144-20.48-3.072-26.624 18.944-3.584 37.888-5.632 57.344-6.656 1.024-14.848 8.704-14.336 16.896-25.6-6.144-2.048-7.68 7.68-9.216 2.048 0.512-14.848 15.872-27.648 5.632-43.008-14.336 13.312-10.752 39.424-20.48 55.808-20.48 4.096-41.472 6.656-61.952 8.192 2.048 20.992 4.096 41.984 8.192 64.512-20.48 8.192-34.304 20.992-55.296 28.672 2.048 7.168 3.072 16.384 10.24 14.848 8.704-23.04 31.744-23.552 53.248-37.888 3.072-2.048-1.536-9.216 2.56-10.24 47.104-31.232 106.496-54.784 148.48-89.6-50.688 26.624-103.424 61.952-152.064 82.944 0-19.968 25.6-27.648 39.424-35.328C491.52 312.32 543.744 283.136 592.896 256c2.048 5.632 9.216 2.56 9.728 10.24-14.336 8.192-33.28 13.312-41.472 25.6 35.328-20.992 73.216-28.672 105.472-46.592-23.04 21.504-62.464 32.256-84.48 54.272 16.896-7.68 32.768-16.896 48.64-27.136 14.336-8.192 37.376-28.672 47.104-9.728-28.672 14.336-56.832 30.72-82.944 49.152 31.744-10.752 57.344-36.864 87.04-42.496 0 4.608 3.584 4.608 4.096 8.704-104.96 58.88-209.408 117.76-313.856 177.664-7.68-3.584-6.656-1.536-15.36-1.536 2.56 6.144 6.144 11.264 8.704 17.92-46.08 27.136-91.648 54.784-140.288 80.384-3.072-6.656-1.024-20.992-7.168-23.04-4.096 9.216-4.608 19.968-1.024 29.696-20.48 7.68-32.768 20.48-53.248 28.16-20.48-105.984 4.096-183.296 27.136-260.608 9.728-15.36 26.624-36.864 23.04-53.76-40.448 64.512-58.368 160.768-66.56 234.496 10.24 23.552 1.536 50.688 11.264 80.896-1.536 10.752-16.384 3.072-11.264 14.848 147.456-74.752 292.352-171.008 442.368-246.272-18.432 10.752-46.592 41.472-61.44 33.28z m2.56-10.752c-51.2 31.232-104.448 59.392-159.232 84.48 97.28-63.488 207.36-118.272 308.736-179.2l7.168-1.536c-50.176 35.328-102.4 67.072-156.672 96.256z" p-id="14218"></path><path d="M856.064 100.864c20.48 13.312 43.008 39.424 65.024 40.448-21.504-13.312-40.448-31.232-65.024-40.448z m35.84 5.12c6.144 0 13.312 14.848 18.432 6.144-9.728 3.072-8.704-9.216-14.848-11.264 0 1.536 0 3.072-2.048 3.072-1.536-0.512-2.56 0.512-1.536 2.048z m357.888 227.84c-46.08-67.584-81.408-152.576-130.56-216.064 29.696 74.752 81.408 143.872 118.784 218.112-19.968 4.096-23.552 28.672-46.08 24.064-78.336 50.688-171.52 91.648-244.736 146.432 25.6-4.608 47.104-28.672 75.776-37.888 8.704 60.928-5.12 107.52-11.264 159.232-7.68 3.584-10.24 12.8-6.656 20.48 0.512 1.024 1.024 2.048 1.536 2.56 20.992-47.616 38.912-117.76 19.456-178.176 4.096-15.36 42.496-32.256 58.368-38.912 11.264 47.616 2.56 92.672 6.656 128.512 7.68-43.52 7.168-88.064-2.048-131.584 5.632-2.048 2.56-9.216 10.24-9.216 5.632 4.608 0.512 15.36 5.632 25.6 6.144 2.048 7.68-7.68 9.216-2.048-7.168 3.072 3.072 11.264-8.192 6.656 2.048 10.24-1.536 18.944 7.168 23.04-13.312 9.216 2.048 23.552 5.632 28.16-4.096 0-8.192 1.536-11.264 4.608 5.12 27.648-6.144 57.344 0 73.728-1.024-1.536-1.024-4.608-3.072-4.096-2.56 21.504-8.192 42.496-16.384 62.464 0-1.024 3.072 4.096 1.536 7.168l-1.536 2.56v2.56c0 25.6-25.088 59.904-37.376 81.408-10.24 27.648-30.72 75.776-65.536 87.04 12.288-23.552 33.28-41.984 42.496-67.584 1.024 2.56 3.072 3.072 5.632 3.584 0-13.312 7.168-31.232 17.92-30.72 2.048-37.376 38.4-79.36 31.744-121.856-19.968 78.336-52.736 158.72-106.496 208.384-2.048-3.072 8.192-7.68 1.024-7.68-4.608 6.144-25.088 2.56-31.744 11.264 9.728 1.024 19.968 1.536 29.696 1.024-11.264 19.456-30.72 30.72-45.056 43.52 1.024-4.608 6.656-3.072 1.024-7.68-8.192 6.144-6.656 25.6-20.992 16.384 0-3.072 11.264-8.704 2.56-10.24-2.56 11.264-17.408 15.36-1.024 19.968-24.064 19.968-52.224 34.304-82.432 41.472-1.024-3.072 11.264-7.168 3.072-8.192-6.656 10.752-23.04-1.536-26.112 15.36 11.264-5.632 14.336 1.536 24.576 0-5.632 6.656-23.552 12.288-25.6 5.632-3.072 5.632 2.56 4.096 0 9.728-41.472 8.192-46.592 20.48-90.624 26.112 26.112 3.584 59.392-2.56 73.216-14.848 0 4.096-7.168 3.584-3.072 10.24 8.704 0 17.92-11.264 26.112-5.12-66.048 26.624-137.216 36.352-207.872 28.16 1.536 16.384-22.016 3.584-30.72 6.144 4.608 6.656 8.704 20.992 3.072 26.624 12.288-2.56 20.992 5.12 28.16-5.632 0.512 9.216 23.552 6.144 30.208 3.584-7.68 0-15.872-1.536-23.04-5.12 3.584-6.144 10.24-2.56 14.336 0 0-4.096-4.608-5.12-1.536-7.168 5.632 1.024 14.336-3.072 13.824 6.656 9.216 2.048 0-8.192 5.632-8.704 5.12 7.168 0 11.264 1.536 19.456 142.336-8.192 262.656-78.336 348.16-143.36 3.072-5.632-1.024-3.072-2.048-9.216 12.288 3.072 11.264-10.24 14.336-15.36 11.264-14.848 24.064-28.672 37.888-40.448-1.024 0 6.656 6.144 1.536-5.12 35.328-37.376 61.952-108.032 83.456-154.624-4.608-16.896 19.456-58.368 9.216-85.504-8.704 2.56-2.048 14.848-8.192 18.944 6.656-46.08 7.168-140.288-5.632-180.736 41.984-24.064 90.624-44.544 126.464-73.728z" p-id="14219"></path><path d="M1087.488 649.216c-0.512-3.072-3.584 5.12 0 0zM551.424 335.872c-65.024 32.256-128 68.608-188.928 107.52 65.536-34.304 129.536-69.632 188.928-107.52z m68.608 358.4c-5.632 2.048-6.144-3.072-12.288 0-17.92 11.264-37.888 25.088-58.368 36.864-20.48 11.264-48.128 17.92-58.368 38.912 17.408-5.632 24.576-17.408 44.544-21.504 4.096 24.576 17.92 34.304 25.6 53.76 19.968-8.704 39.424-19.456 57.344-31.744 18.944 11.264 32.768 30.72 54.272 37.888 13.824-15.36 23.04-33.792 39.424-47.616 16.896 1.024 29.184 8.704 46.08 10.24-5.12-13.312-17.92-13.824-28.672-18.944 8.192-6.656 22.016-9.728 25.6-19.968-16.896 6.656-31.232 25.6-48.64 14.848-16.896 22.016-43.52 72.704-57.344 29.184 67.072-34.304 127.488-73.728 193.536-108.544-4.096 7.68 7.68 25.6-1.024 29.696-19.456 1.024-38.4 3.584-57.344 7.168-4.096 5.632 0 12.8-2.048 14.848-1.024-2.048-16.384 3.584-14.848 10.24 6.144 2.048 7.68-7.68 9.216-2.048 0 15.36-18.432 35.84 0 44.544 7.168-19.968 7.68-44.032 19.456-60.416 20.992-1.024 41.472-4.096 61.952-8.192-4.096-21.504-6.656-43.008-8.704-64.512 19.456-9.728 35.84-20.992 54.784-30.72 0-8.704-5.12-8.192-5.632-15.872-14.336 20.992-32.256 26.624-58.368 38.912-2.56 3.584 1.536 11.264-4.608 13.312-51.712 32.256-111.104 59.904-159.744 94.208 51.712-23.552 108.544-61.44 162.816-90.112 1.024 4.608 2.048 9.216 3.072 14.336-68.608 36.352-131.584 76.8-200.704 112.64-2.048-5.632-9.216-2.56-9.728-10.24 14.336-8.192 33.28-13.312 41.472-25.6-37.888 19.968-73.216 29.696-108.032 47.104 13.824-10.752 28.16-20.48 43.008-28.672 15.872-8.704 39.936-13.824 40.96-28.16-28.672 18.944-58.88 35.84-90.112 50.688 0.512-7.168-4.608-5.632-4.608-11.264 37.888-20.992 76.288-41.984 111.616-65.024-38.4 10.24-76.288 48.64-115.712 58.368-1.024-3.072-3.584-2.56-3.584-6.656 101.888-65.024 215.04-122.88 319.488-186.368 5.632 1.536 11.776 2.048 17.408 1.024-3.584-6.656-6.656-13.312-8.704-20.48 13.824-9.728 36.352-13.824 43.008-28.672-13.312-1.024-27.136 12.288-42.496 20.992-12.8 7.68-38.4 12.288-33.792 26.624 5.12 4.096 20.48-17.92 25.6-7.68-10.752 9.216-30.72 23.04-44.032 24.064-1.024-9.728 15.36-7.68 13.312-17.408-25.6 4.608-51.712 26.624-75.264 39.936 21.504 10.24 30.72-18.432 53.248-15.872-91.648 53.248-186.368 111.104-275.456 155.136 31.744-31.232 87.552-47.104 121.344-76.8-15.872 3.584-30.208 11.776-41.984 23.04l2.048 0.512z" p-id="14220"></path><path d="M876.544 580.096c-62.464 38.912-132.608 72.704-192.512 113.664 67.584-32.768 125.952-72.192 191.488-105.984-1.536-3.072 8.192-7.68 1.024-7.68z m-206.336 81.92c23.552-4.608 45.056-15.872 61.952-32.256-22.016 7.168-43.008 17.92-61.952 32.256z m-100.864 330.24c-16.896 2.56-26.624-4.608-42.496-3.584-3.584 2.048 2.56 11.264-2.048 12.8-1.024-9.728-7.168-11.264-11.264-17.408 0 7.68 7.168 19.456 2.56 24.064-1.024-12.288-10.24-12.8-10.752-27.136-7.168 1.024-11.264-3.072-17.92-3.584 2.048 7.168 7.168 9.728 10.24 14.848-5.632 2.048-2.56 9.216-10.24 9.728 0-29.184-44.544-46.592-61.952-38.4-8.192-15.872-45.056-40.448-49.664-14.336-1.536-9.728-7.168-13.824-7.68-25.6-23.552-11.264-45.056-26.624-63.488-46.08 5.632-1.024 6.144-5.632 13.824-5.12 5.12 7.168 12.288 12.288 20.48 15.36-1.536-12.8-14.336-8.704-16.384-20.992 22.016-5.12 39.424-30.72 58.88-24.576-3.072-8.704-4.608-7.68 0-14.336-30.72 15.36-57.344 32.256-90.112 50.688 2.56 4.608 0 15.872 5.632 15.872 0-3.584-2.56-8.704 0-9.728 4.096 23.04 20.48 41.984 43.008 49.664-2.048-1.536-2.048-5.632 0-6.656 3.584 5.12 5.632 19.456 8.704 7.68 23.04 31.232 60.928 39.424 94.72 54.272 4.608-4.096 5.12-1.536 10.752-7.168 16.384 30.72 57.344 25.088 88.064 33.28-2.048-7.168-3.072-14.336 1.024-17.408 5.12 0.512 2.048 13.312 7.68 13.312 0-8.704 11.264-3.584 11.264-14.848 4.096 3.072 5.632 10.24 9.728 12.8l-2.56-17.408z" p-id="14221"></path><path d="M339.968 933.376h1.536-1.536z m65.024 0c9.728-0.512 13.312 8.704 23.552 7.168-7.168-12.8-17.408-7.68-25.088-14.336l1.536 7.168z m184.832-20.992c-8.704 1.024-13.824-4.096-24.064 2.56 0-2.56 1.024-3.072 1.536-5.12-7.68-1.024-3.072 6.144-2.56 10.24 11.264-2.048 36.864 6.656 18.944-4.096 2.048-0.512 6.144-1.024 6.144-3.584zM419.328 196.096c8.192 7.168 14.848 15.36 19.968 25.088-1.536-15.36 23.04-12.288 25.6-19.968-6.144-1.024-7.168-6.656-9.216-19.968-10.24-3.072-20.48-7.68-29.696-13.312 6.144 14.848-1.536 20.48-6.656 28.16zM158.72 951.808c-19.968-34.304-40.96-72.704-62.464-112.128-8.704 8.192-7.68-3.584-13.824-7.168-2.048 7.68 8.704 10.752 3.072 14.336-19.968-33.28-39.424-67.072-62.464-97.28 33.28 87.04 80.384 153.6 124.928 222.208 0-6.144-6.656-16.384-1.536-19.456 6.656 0 5.12 12.8 12.288 12.288 8.704-11.264 18.944-11.264 27.648-20.48-9.728-7.168-14.848 5.12-27.648 7.68z m395.776-42.496h-1.024l1.536 1.024c0-0.512 0-0.512-0.512-1.024z m3.584 4.096l-3.072-3.072c0.512 1.536 1.024 3.584 3.072 3.072z m-50.176-16.384c7.68 20.992 27.648 11.264 40.96 18.432 3.584-1.024 1.024-5.632 5.12-6.144-11.776-9.216-32.768-5.632-46.08-12.288zM278.016 648.192l17.408-9.728 15.872 28.16 121.856-69.12-29.696-52.224-146.944 83.456-8.704-14.848 163.84-92.672L465.92 615.424l-16.896 9.728-7.168-12.288-121.856 69.12 33.792 59.392c7.168 12.288 16.384 15.36 28.16 8.704l100.352-56.832c11.776-6.656 16.384-14.848 13.824-24.576-2.048-9.728-6.656-22.016-13.312-36.352 6.656-0.512 13.824-2.048 20.992-3.584 6.144 15.36 10.24 27.648 12.8 37.376 4.608 17.408-2.56 31.744-20.992 42.496l-108.544 61.44c-20.992 11.776-37.376 7.168-49.664-14.336l-59.392-107.52zM477.696 482.304l74.24-41.984 8.192 14.336-29.696 16.896c6.144 18.432 10.24 36.352 13.312 53.76l34.304-19.456 54.272 95.744-38.4 21.504 9.728 16.896-14.336 8.192-41.984-73.728c0 6.144-0.512 12.8-1.024 18.944-6.144-3.072-11.776-5.632-16.896-7.168 2.56-35.328-2.048-70.656-13.824-105.472L485.888 496.64l-8.192-14.336z m132.096 112.64l-38.4-67.584-24.064 13.824 38.4 67.584 24.064-13.824z m-15.36-79.872l24.576-13.824c-1.536-3.072-13.312-23.552-34.304-60.928l-16.384 9.216-8.704-14.848 107.52-60.928 8.704 15.36-20.48 11.776 34.304 60.928 28.16-15.872 8.704 14.848-28.16 15.872 54.784 96.256-15.872 8.704-54.784-96.256-39.936 22.528c22.528 40.448 27.648 80.384 16.384 120.32-6.656-2.048-13.312-3.072-19.968-4.096 11.264-36.352 7.168-72.192-12.288-107.008l-24.064 13.312-8.192-15.36z m39.936-22.528l39.424-22.528-34.304-60.416-39.424 22.528c19.968 34.816 31.744 54.784 34.304 60.416zM723.456 356.352l8.192-15.36c15.872 6.656 31.232 13.824 46.08 20.992l-8.704 17.408c-17.408-9.728-32.768-17.408-45.568-23.04z m49.664 92.672l46.592-26.112c-3.584-10.24-8.192-20.48-13.824-30.72l-45.056 25.6-8.192-14.336 45.568-25.6c-9.728-18.432-22.016-41.472-38.4-69.632l15.872-9.216c15.36 27.136 28.16 50.176 38.4 69.632l45.056-25.6 8.192 14.336-45.056 25.6c5.632 10.24 10.24 20.48 14.336 30.72l51.2-28.672L896 399.36l-53.76 30.72c9.728 34.304 8.704 67.072-3.072 97.792-6.656-2.56-13.312-4.608-19.968-6.144 10.24-26.112 12.288-53.76 5.632-82.432l-43.008 24.576-8.704-14.848z m40.448-105.472c3.072-18.432 4.608-35.84 4.608-51.712l19.456 1.024c-1.536 19.968-3.584 37.888-6.144 53.248l-17.92-2.56z m36.864-57.856l15.872-8.704L936.96 401.92l-15.872 8.704-70.656-124.928z m30.208-47.616l15.872-9.216L993.28 399.872c9.728 17.408 6.144 31.232-10.752 40.96-6.656 4.096-16.384 9.216-29.184 15.872-4.096-5.632-8.192-10.752-12.8-15.872 11.264-4.608 20.48-9.216 28.16-13.824 9.728-5.632 11.776-13.824 5.632-24.576L880.64 238.08z" p-id="14222"></path></svg>