<?xml version="1.0" standalone="no"?><!DOCTYPE svg PUBLIC "-//W3C//DTD SVG 1.1//EN" "http://www.w3.org/Graphics/SVG/1.1/DTD/svg11.dtd"><svg t="1758615090346" class="icon" viewBox="0 0 1024 1024" version="1.1" xmlns="http://www.w3.org/2000/svg" p-id="6570" xmlns:xlink="http://www.w3.org/1999/xlink" width="16" height="16"><path d="M582.784 100.699429c-26.331429-56.082286-106.093714-56.082286-132.425143 0l-101.284571 215.771428-229.376 35.053714c-58.861714 8.996571-82.889143 80.786286-41.325715 123.392l168.283429 172.452572-39.405714 241.554286c-9.837714 60.269714 54.125714 105.325714 107.574857 75.794285l219.428571-121.307428a36.571429 36.571429 0 0 0-35.364571-64l-219.446857 121.289143 39.387428-241.554286a73.142857 73.142857 0 0 0-19.821714-62.848L130.742857 423.844571l229.394286-35.053714a73.142857 73.142857 0 0 0 55.149714-41.234286l101.302857-215.771428 101.266286 215.771428a73.142857 73.142857 0 0 0 55.168 41.234286l229.376 35.035429-87.424 89.618285a36.571429 36.571429 0 1 0 52.352 51.090286l87.442286-89.618286c41.563429-42.605714 17.536-114.395429-41.325715-123.392L684.068571 316.489143l-101.284571-215.771429z" p-id="6571"></path><path d="M928.512 644.059429a36.571429 36.571429 0 0 1 0 51.712L837.997714 786.285714l90.514286 90.514286a36.571429 36.571429 0 1 1-51.712 51.712L786.285714 837.997714l-90.514285 90.514286a36.571429 36.571429 0 1 1-51.712-51.712l90.514285-90.514286-90.514285-90.514285a36.571429 36.571429 0 1 1 51.712-51.712l90.514285 90.514285 90.514286-90.514285a36.571429 36.571429 0 0 1 51.712 0z" p-id="6572"></path></svg>