<?xml version="1.0" standalone="no"?><!DOCTYPE svg PUBLIC "-//W3C//DTD SVG 1.1//EN" "http://www.w3.org/Graphics/SVG/1.1/DTD/svg11.dtd"><svg t="1758587951714" class="icon" viewBox="0 0 1024 1024" version="1.1" xmlns="http://www.w3.org/2000/svg" p-id="5938" xmlns:xlink="http://www.w3.org/1999/xlink" width="16" height="16"><path d="M608 684.8c-158.4 0-286.4-128-286.4-286.4S449.6 112 608 112s286.4 128 286.4 286.4-128 286.4-286.4 286.4z m0-508.8c-123.2 0-222.4 99.2-222.4 222.4S484.8 620.8 608 620.8s222.4-99.2 222.4-222.4S731.2 176 608 176zM289.6 644.8c-3.2 0-6.4 0-9.6-1.6-94.4-32-158.4-120-158.4-219.2 0-83.2 44.8-160 116.8-201.6 16-8 35.2-3.2 43.2 12.8s3.2 35.2-12.8 43.2C216 308.8 184 363.2 184 424c0 72 46.4 136 113.6 158.4 16 4.8 25.6 24 20.8 40-3.2 12.8-16 22.4-28.8 22.4zM936 912c-8 0-17.6-3.2-24-9.6-80-84.8-188.8-131.2-305.6-131.2-116.8 0-225.6 46.4-305.6 131.2-12.8 12.8-32 12.8-44.8 1.6s-12.8-32-1.6-44.8c92.8-97.6 217.6-152 352-152s259.2 54.4 352 152c12.8 12.8 11.2 33.6-1.6 44.8-4.8 4.8-12.8 8-20.8 8zM94.4 832c-8 0-16-3.2-22.4-8-12.8-12.8-12.8-32-1.6-44.8 60.8-64 142.4-105.6 230.4-116.8 17.6-1.6 33.6 9.6 35.2 27.2 1.6 17.6-9.6 33.6-27.2 35.2-73.6 9.6-140.8 44.8-192 97.6-4.8 6.4-12.8 9.6-22.4 9.6z"  p-id="5939"></path></svg>