<?xml version="1.0" standalone="no"?><!DOCTYPE svg PUBLIC "-//W3C//DTD SVG 1.1//EN" "http://www.w3.org/Graphics/SVG/1.1/DTD/svg11.dtd"><svg t="1758075741608" class="icon" viewBox="0 0 1024 1024" version="1.1" xmlns="http://www.w3.org/2000/svg" p-id="13611" xmlns:xlink="http://www.w3.org/1999/xlink" width="16" height="16"><path d="M754.56 778.88V517.12a249.6 249.6 0 1 0-499.2 0v261.12a94.72 94.72 0 0 0-53.76 85.12v46.08a58.24 58.24 0 0 0 58.24 58.24h490.88a58.24 58.24 0 0 0 58.24-58.24v-45.44a94.72 94.72 0 0 0-54.4-85.12zM320 517.12a185.6 185.6 0 1 1 371.2 0V768H451.2V623.36a32 32 0 0 0-64 0V768H320z m424.96 384h-480v-37.12a30.72 30.72 0 0 1 30.72-32h417.28a30.72 30.72 0 0 1 30.72 30.72zM504.96 215.04a32 32 0 0 0 32-32V104.32a32 32 0 0 0-64 0v78.72a32 32 0 0 0 32 32zM244.48 360.32a32 32 0 0 0-11.52-43.52l-68.48-39.68a32 32 0 1 0-32 55.68l68.48 39.68a31.36 31.36 0 0 0 16 4.48 32 32 0 0 0 27.52-16.64zM149.76 476.8h-37.76a32 32 0 1 0 0 64h37.12a32 32 0 1 0 0-64zM300.8 223.36a32 32 0 0 0 27.52 16 31.36 31.36 0 0 0 16-4.48 32 32 0 0 0 12.16-42.88l-18.56-32.64a32 32 0 0 0-55.68 32zM663.68 239.36a32 32 0 0 0 40.32-12.16l21.76-35.2a32 32 0 0 0-55.68-32l-18.56 32.64a32 32 0 0 0 12.16 46.72zM888.32 485.12h-37.12a32 32 0 1 0 0 64h37.12a32 32 0 0 0 0-64zM787.84 384a32 32 0 0 0 16-4.48l68.48-39.68a32 32 0 1 0-32-55.68l-68.48 39.68a32 32 0 0 0 16 59.52z"  p-id="13612"></path></svg>