<?xml version="1.0" standalone="no"?><!DOCTYPE svg PUBLIC "-//W3C//DTD SVG 1.1//EN" "http://www.w3.org/Graphics/SVG/1.1/DTD/svg11.dtd"><svg t="1758075722703" class="icon" viewBox="0 0 1148 1024" version="1.1" xmlns="http://www.w3.org/2000/svg" p-id="12527" xmlns:xlink="http://www.w3.org/1999/xlink" width="17.9375" height="16"><path d="M681.150154 897.438392l-0.32491-0.309571c-8.007016-7.615171-16.287347-15.486924-24.772664-22.936154-3.058061-2.696895-7.16197-4.120643-11.864105-4.120643-2.719206 0-9.586944 0.511769-14.600045 5.259921-5.290599 5.024256-10.303699 10.242343-15.152252 15.28891-3.392732 3.533573-7.237271 7.53987-10.947942 11.198945-17.460091 17.19096-31.187201 30.452318-44.076237 42.567426-3.935179-2.822396-7.392057-5.728461-10.307882-8.662414-16.391931-16.483966-33.614964-34.154622-55.845519-57.298551-9.605072-9.994128-19.323096-20.253204-28.721788-30.176214l-1.358208-1.433509c-8.291487-8.757238-17.688784-18.683037-26.812766-28.208625-5.945997-6.21234-12.189015-12.561337-17.69715-18.160113l-0.366744-0.372322c-5.537419-5.633637-11.263091-11.45971-16.780987-17.221637a23086.323801 23086.323801 0 0 1-41.117184-43.122424c-13.378493-14.053414-26.756987-28.106829-40.170342-42.130959-8.573168-8.96083-17.329012-17.960704-25.797595-26.664953l-1.161589-1.193661c-4.600339-4.730024-9.199283-9.457259-13.789861-14.202622a212509.113528 212509.113528 0 0 1-39.04222-40.358595 109926.09702 109926.09702 0 0 0-43.54913-45.017501c-4.992183-5.159519-10.008073-10.298121-15.023961-15.435329-9.628778-9.863048-19.585255-20.063557-29.255868-30.307294-1.048637-1.112783-2.104247-2.222777-3.159857-3.334165l-0.687471-0.723727c-7.234482-7.594254-14.065965-14.76738-19.378875-22.615427-6.216523-9.176972-11.208707-19.374691-16.492332-30.173425l-2.27995-4.646356c-6.521911-13.251597-12.38424-26.733281-16.762859-36.997935-2.507247-5.883246-4.44137-12.197382-6.48705-18.881051-0.847834-2.768012-1.741686-5.439806-2.744306-8.419777-2.295289-6.83706-4.463681-13.294826-5.176253-19.395609-2.178154-18.483628-2.854469-37.642178-3.22958-53.947652-0.193831-8.319376 0.495035-17.685995 2.107036-28.63812 2.038707-13.925124 4.462287-26.409765 7.407396-38.170679 1.87416-7.513375 5.034017-15.012806 8.393283-22.984961l0.301204-0.711177a1230.80606 1230.80606 0 0 0 4.112276-9.929982c4.735602-11.523856 9.209044-22.407652 14.799453-32.638839 10.189353-18.648175 22.144098-34.698463 35.532353-47.706028 13.697826-13.318531 25.485235-23.524618 37.098337-32.120098 8.32077-6.153772 17.952337-11.002326 28.193285-16.159056l4.119249-2.080541c5.229242-2.649483 11.334208-4.473442 17.653921-6.262541a559.105008 559.105008 0 0 0 9.197889-2.715023c9.319207-2.808452 18.122462-5.462118 26.755593-6.445215 6.089627-0.691654 12.863936-1.013776 21.321363-1.013776 4.805325 0 9.743124 0.100401 14.517771 0.198014 3.030172 0.061356 6.05616 0.121318 9.06402 0.160364 6.938856 0.093429 14.940294 0.322121 22.106448 1.864399 9.104459 1.959223 18.047161 4.640778 27.512787 7.478514 2.515614 0.7558 5.032623 1.510205 7.551026 2.249271 1.586901 0.467146 3.184957 0.91198 4.787197 1.356814l0.260764 0.072512c5.262709 1.461399 10.233976 2.841919 14.303024 4.869471 9.744519 4.849948 19.543422 10.458485 29.067615 15.910841l1.190872 0.680499c2.359434 1.349842 4.718868 2.699683 7.08667 4.041158 22.379763 12.6715 43.572836 30.183186 64.78822 53.533496 11.939406 13.138646 23.166241 27.667572 34.024936 41.718198l0.204987 0.264948c4.445553 5.750772 9.040314 11.696769 13.658781 17.510293 1.709614 2.153053 6.910967 8.707037 15.606847 8.704248 4.281006 0 10.480796-1.621762 15.691911-9.33873 1.089077-1.606423 2.530953-3.313248 4.062075-5.127446l0.093429-0.111557c1.585506-1.883922 3.225397-3.830594 4.837398-6.071499 15.373972-21.386904 34.64129-42.121198 62.467831-67.225745 12.834652-11.582423 27.744268-21.946084 42.163032-31.969495l4.113671-2.861442c13.912573-9.683162 27.298039-16.504883 40.923353-20.857007 2.759645-0.881302 5.423073-1.83651 7.998649-2.76104l0.264948-0.094823c3.720432-1.334503 7.233088-2.59231 10.677415-3.521024 3.876612-1.048637 7.781113-2.231143 11.231018-3.276991 9.281556-2.809846 18.04995-5.462118 26.440444-6.057555 10.317644-0.732094 22.473192-1.480921 34.402836-1.480921 24.672262 0 44.381625 3.264442 62.028575 10.274415 14.786903 5.863724 25.874291 10.968859 35.949298 16.556478 19.306363 10.695544 37.610105 26.165734 57.601149 48.690521 16.375198 18.430639 28.537718 40.449235 38.272476 59.554795 2.625777 5.160914 4.660301 9.817031 6.217918 14.226328 3.507078 9.978789 6.364336 18.885234 8.740504 27.22971 0.588464 2.065202 1.193662 4.130404 1.816987 6.245807 2.494697 8.511812 4.851342 16.552295 5.985042 24.511899 1.61479 11.274246 2.010818 23.300109 2.395691 34.957833l0.133868 3.965858c0.528502 14.987706 11.173845 20.409384 20.124913 20.500024 7.467358 0.085062 14.973761 0.128291 22.31004 0.128291 5.50953 0 11.023243-0.0251 16.523011-0.075301 7.55242-0.061356 12.011918-3.355082 14.422947-6.106361 3.578196-4.085781 4.989394-9.391719 4.191761-15.760239-0.453201-3.681387-0.623326-7.55242-0.806001-11.673063l-0.006972-0.140841c-0.200803-4.452526-0.407184-9.058442-0.998437-13.798227-1.60224-12.914137-3.553096-25.783651-5.438412-38.229248l-0.034861-0.232875c-0.458779-3.030172-0.916163-6.058949-1.365181-9.057048-0.370928-2.529559-1.162983-4.551532-1.687302-5.887429l-0.089246-0.228693c-0.061356-0.15618-0.126896-0.309571-0.18128-0.482484-0.860385-2.727573-1.716586-5.457934-2.572788-8.189691l-0.573125-1.830932c-1.998268-6.383859-4.062075-12.985254-6.173294-19.486249-0.528502-1.624551-1.036087-3.257469-1.545067-4.89457-1.818382-5.842807-3.69812-11.883627-6.468921-17.917476-5.870696-12.84023-11.123644-23.047711-16.525801-32.118704l-1.929939-3.251891c-7.77414-13.099601-15.813229-26.64543-25.450373-39.159355-16.039132-20.841668-34.538099-39.401992-54.979556-55.16502-17.61906-13.58348-36.376004-24.241373-54.01877-33.732099-5.400761-2.913037-11.282613-5.462118-17.489376-7.578915-10.484979-3.55449-19.367719-6.39362-28.639514-8.691698-3.256075-0.808789-6.648807-1.737503-9.928588-2.636933l-0.274709-0.075301c-11.229624-3.077583-22.84133-6.259752-35.160031-6.803593-2.232538-0.097613-4.463681-0.204986-6.701797-0.313754l-0.914769-0.044623C832.388208 0.433692 823.414828 0.000014 814.399614 0.000014c-18.331632 0-33.191047 1.8895-46.760582 5.948786-0.524319 0.157575-2.179548 0.262159-3.276991 0.330488-1.407015 0.089246-3.002282 0.189647-4.697952 0.423917-0.736277 0.100401-1.480921 0.182675-2.224171 0.266343l-0.147813 0.016734c-3.062244 0.338855-6.874711 0.759983-10.812679 2.105641-14.588889 4.982422-29.672812 10.134969-44.606134 15.926181-9.63575 3.731587-20.907208 8.338898-31.43681 14.231905-12.819313 7.160576-25.045979 14.931927-36.339747 23.095123-12.226666 8.840906-28.184919 20.678516-43.196331 33.853418-10.153097 8.906445-19.507165 18.624469-28.624175 28.097067l-1.851849 1.922967a45.170892 45.170892 0 0 0-3.422016-3.551702 2118.925231 2118.925231 0 0 1-14.339279-13.449611l-0.188253-0.177097c-13.183268-12.445597-26.815554-25.316505-41.26918-37.084392-14.983522-12.205749-31.588807-23.277798-49.35847-32.909365-10.798734-5.853962-22.112025-10.208875-33.160368-14.463386-5.48164-2.111219-11.150139-4.294951-16.506278-6.584662-16.361253-7.000212-33.150607-9.966239-49.384964-12.833258l-0.510374-0.09064c-4.201522-0.744644-8.545279-1.514389-12.735645-2.335729-7.668161-1.504627-15.12018-1.684513-22.326773-1.858821L317.120984 5.06192l-0.044623-4.184788c-3.523812-0.086457-6.853794-0.16873-10.087557-0.400211a181.517458 181.517458 0 0 0-13.110756-0.469935c-18.365099 0-37.842981 2.625777-61.295087 8.263598-14.944477 3.586563-28.946296 9.584155-42.486547 15.382339l-2.23951 0.959391c-11.713503 5.004733-23.446528 11.005115-34.872771 17.833808-12.30615 7.362773-22.436936 14.488487-30.973848 21.781537-11.151533 9.522799-24.104715 21.04526-35.63136 34.31638-10.726222 12.339617-21.445471 26.557578-33.734888 44.742791-7.538476 11.151533-14.343463 23.452106-20.222526 36.553101-3.441539 7.640272-6.1217 15.425568-8.744687 23.046317-2.021974 5.877668-3.930996 11.429032-6.155167 16.840949-8.912023 21.685319-12.325673 44.112493-14.825948 63.434195-3.263047 25.271882-2.911642 50.508903-2.23951 69.67303 0.672132 19.093009 3.917051 37.849953 7.184282 55.422996 1.670569 9.004058 4.731418 17.301122 7.716967 25.391806a460.569349 460.569349 0 0 1 2.602071 7.178704c4.250328 12.19041 8.825567 25.170086 13.898629 38.057728 2.189309 5.572281 4.92246 10.567253 7.570548 15.403256l0.345827 0.633087c0.500613 0.914769 1.001226 1.830932 1.494866 2.749884l2.325967 4.342363c3.653497 6.834271 7.431102 13.901418 11.604735 20.812384 1.529728 2.532348 3.027383 5.099557 4.551532 7.708601 5.213903 8.938518 10.603509 18.179635 17.639978 26.586862 9.36383 11.175239 19.585255 21.580734 29.46922 31.641796l0.520135 0.529897c3.433172 3.497317 6.864949 6.991846 10.256288 10.518446a47178.626921 47178.626921 0 0 0 47.085492 48.88993l7.855019 8.149251a40655.321475 40655.321475 0 0 1 50.720861 52.699606l0.857596 0.895247c13.994847 14.562394 27.986905 29.126182 42.008246 43.655109 10.010861 10.373422 20.04264 20.723139 30.074418 31.072855l1.638496 1.690091c12.6464 13.043822 26.981496 27.82933 41.046066 42.441925 7.150815 7.42413 14.36438 15.082529 21.340887 22.491319l0.407183 0.432284c5.506741 5.84699 11.74697 12.47488 17.94676 18.96193a3882.030506 3882.030506 0 0 0 36.155678 37.320056l13.370127 13.61137c21.874966 22.276572 44.493182 45.310339 67.010997 67.752852 12.219693 12.170887 27.564382 25.337422 48.71841 30.724238 0.914769 0.232876 1.935517 0.554997 3.095711 0.920347 3.505684 1.10581 7.868964 2.482147 12.753774 2.482147 1.453032 0 2.879569-0.122713 4.233594-0.36535 19.680079-3.465245 36.285364-11.456921 49.354286-23.749127 17.416863-16.384959 34.483715-33.343043 50.992782-49.744736l1.051426-1.047243c5.654554-5.618298 10.853118-11.221257 16.35707-17.153309 2.352462-2.533742 4.732813-5.096768 7.174521-7.690472a13.547224 13.547224 0 0 0 3.118022-4.699346 13.600213 13.600213 0 0 0-3.323009-14.979339 2620.080473 2620.080473 0 0 1-7.531503-7.135475z" p-id="12528"></path><path d="M1148.892629 628.92447l0.001395-1.034693c0.002789-6.100783 0.005578-12.200171-0.009762-18.268881 0-11.277035-7.638877-18.853162-19.023286-18.853161-48.500874 0.165941-97.583239 0.239848-145.048025 0.310966l-22.933365 0.033467c-0.852018 0-1.704036-0.01255-2.556054-0.026495V590.498603c0.044623-49.315241 0.100401-110.691206 0.224509-169.078834 0.006972-2.314811 0.027889-9.358252-5.317094-14.725546-3.469428-3.479189-8.068372-5.243187-13.668542-5.243187-0.531291 0-1.09326 0.015339-1.674752 0.048806-3.954702 0.227298-8.287303 0.327699-14.050625 0.3277-2.33015 0-4.660301-0.015339-6.990451-0.029284l-1.04306-0.006973c-1.607818-0.009761-3.218424-0.020917-4.823453-0.023705l-2.00524-0.002789c-7.210776 0-15.382339 0-21.120561 6.936067-4.649145 5.616903-4.649145 11.680036-4.649145 20.859796 0.022311 38.89859 0.019523 77.797181 0.016734 116.694376l-0.002789 38.902774c0 1.998268-0.022311 4.046736-0.064146 6.125883-40.386484-0.157575-92.756997-0.331883-145.844264-0.331883-8.856245 0-17.712489 0.005578-26.602202 0.016734-8.334715 0.029284-18.285614 7.677922-18.628652 17.510292-0.386267 12.619905-0.387661 25.857557 0 39.343424 0.266343 9.658062 10.008073 17.225821 18.210313 17.289967 19.918532 0.163152 39.464743 0.186858 57.619278 0.186858l31.090983-0.006972c1.301035 0 2.581154-0.185464 3.815255-0.552208l43.754116 0.006972c12.225271 0 24.453331-0.004183 36.692547-0.016733 0 0.658187-0.009761 1.345658-0.020917 2.048468-0.011156 0.811578-0.022311 1.623157-0.022311 2.406846l-0.316544 165.734908c-0.005578 2.569998-0.023706 10.385972 5.823284 16.239935 5.848385 5.860935 13.77731 5.890219 16.471416 5.890218h0.039045l0.666555-0.005577c2.755462-0.040439 5.513713-0.125502 8.276147-0.210565l0.24682-0.008366c3.578196-0.112952 7.279105-0.230087 10.936786-0.230087 3.380182 0 6.31553 0.104585 8.978958 0.320727 1.99269 0.158969 3.780394 0.290049 5.476062 0.290049 10.464062 0 14.869176-6.010142 16.562056-9.589734 2.012212-4.248934 2.012212-8.62058 2.012213-13.248808-0.005578-24.815892-0.019523-49.634573-0.032073-74.45186l-0.005578-10.786184c-0.019523-28.101251-0.030678-56.205291-0.039045-84.300963 49.602501 0.068329 111.165324 0.151997 170.241818 0.407184 11.752548 0 19.345408-7.503614 19.345407-19.127872-0.016734-5.727066-0.01255-11.456921-0.009761-17.183987z"  p-id="12529"></path></svg>