<?xml version="1.0" standalone="no"?><!DOCTYPE svg PUBLIC "-//W3C//DTD SVG 1.1//EN" "http://www.w3.org/Graphics/SVG/1.1/DTD/svg11.dtd"><svg t="1758509493175" class="icon" viewBox="0 0 1024 1024" version="1.1" xmlns="http://www.w3.org/2000/svg" p-id="26303" xmlns:xlink="http://www.w3.org/1999/xlink" width="16" height="16"><path d="M512 0c282.773333 0 512 229.226667 512 512S794.773333 1024 512 1024 0 794.773333 0 512 229.226667 0 512 0z m100.352 256H411.093333c-10.218667 0-19.754667 1.792-28.629333 5.376-8.896 3.605333-16.64 8.533333-23.253333 14.741333a68.906667 68.906667 0 0 0-15.573334 21.845334c-3.797333 8.32-5.674667 17.194667-5.674666 26.645333V704.426667c0 9.450667 1.877333 18.218667 5.653333 26.346666 3.776 8.128 8.981333 15.317333 15.594667 21.546667 6.613333 6.250667 14.357333 11.157333 23.253333 14.741333 8.874667 3.584 18.410667 5.397333 28.629333 5.397334h201.258667c10.197333 0 19.733333-1.813333 28.629333-5.397334 8.874667-3.584 16.64-8.490667 23.253334-14.72 6.613333-6.250667 11.797333-13.44 15.573333-21.546666 3.776-8.149333 5.674667-16.917333 5.674667-26.368V324.608c0-9.450667-1.898667-18.346667-5.674667-26.666667a68.906667 68.906667 0 0 0-15.573333-21.824 73.856 73.856 0 0 0-23.253334-14.72A75.669333 75.669333 0 0 0 612.352 256z m-100.906667 436.544c8.32 0 15.296 2.816 20.970667 8.490667 5.653333 5.674667 8.490667 12.672 8.490667 20.970666 0 7.957333-2.837333 14.848-8.490667 20.693334a28.032 28.032 0 0 1-20.992 8.789333c-7.936 0-14.826667-2.922667-20.693333-8.789333a28.309333 28.309333 0 0 1-8.768-20.693334c0-8.32 2.922667-15.296 8.768-20.970666a28.8 28.8 0 0 1 20.693333-8.490667z m128.106667-340.736V676.693333H383.317333V351.786667h256.234667z m-91.84-57.813333c2.282667 0 4.352 0.853333 6.250667 2.56 1.877333 1.685333 2.816 4.053333 2.816 7.061333a9.045333 9.045333 0 0 1-2.816 7.082667 9.130667 9.130667 0 0 1-6.250667 2.56H475.733333a9.130667 9.130667 0 0 1-6.229333-2.56 9.045333 9.045333 0 0 1-2.837333-7.082667c0-3.008 1.045333-5.376 3.114666-7.082667a9.6 9.6 0 0 1 5.973334-2.56z" fill="#49AAF8" p-id="26304"></path></svg>