<?xml version="1.0" standalone="no"?><!DOCTYPE svg PUBLIC "-//W3C//DTD SVG 1.1//EN" "http://www.w3.org/Graphics/SVG/1.1/DTD/svg11.dtd"><svg t="1768202693111" class="icon" viewBox="0 0 1024 1024" version="1.1" xmlns="http://www.w3.org/2000/svg" p-id="16717" xmlns:xlink="http://www.w3.org/1999/xlink" width="32" height="32"><path d="M192 960V832H64V64h768v128h128v768H192z m576-832H128v640h64V192h576v-64z m128 128H256v640h640V256zM448 400.256l128 128 128-128V384h64v64h-16.256l-128 128 128 128H768v64h-64v-16.256l-128-128-128 128V768h-64v-64h16.256l128-128-128-128H384v-64h64v16.256z" p-id="16718"></path></svg>