<?xml version="1.0" standalone="no"?><!DOCTYPE svg PUBLIC "-//W3C//DTD SVG 1.1//EN" "http://www.w3.org/Graphics/SVG/1.1/DTD/svg11.dtd"><svg t="1758075674821" class="icon" viewBox="0 0 1024 1024" version="1.1" xmlns="http://www.w3.org/2000/svg" p-id="9228" xmlns:xlink="http://www.w3.org/1999/xlink" width="16" height="16"><path d="M992.416 480.376h-85c-15.392-193.696-170.136-348.44-363.832-363.8V31.576A31.568 31.568 0 0 0 512-0.008a31.568 31.568 0 0 0-31.584 31.584v85c-193.68 15.36-348.44 170.104-363.832 363.8H31.584a31.576 31.576 0 1 0 0 63.168h85.008c15.328 193.744 170.096 348.504 363.832 363.864v85.008A31.56 31.56 0 0 0 512.008 1024a31.56 31.56 0 0 0 31.584-31.584v-85.008c193.728-15.36 348.504-170.128 363.832-363.864h85a31.576 31.576 0 1 0-0.008-63.168z m-148.176 0H676.832c-12.888-67.336-65.944-120.352-133.24-133.208V179.744c158.872 14.992 285.632 141.728 300.648 300.632z m-363.824 0h-67.888a104.64 104.64 0 0 1 67.888-67.856v67.856z m0 63.168v67.96a104.688 104.688 0 0 1-67.92-67.96h67.92z m63.168 0h67.912a104.696 104.696 0 0 1-67.912 67.96v-67.96z m0-63.168v-67.856a104.632 104.632 0 0 1 67.88 67.856h-67.88z m-63.168-300.632v167.416c-67.304 12.856-120.352 65.88-133.248 133.208H179.752c15.024-158.896 141.792-285.632 300.664-300.624zM179.752 543.544h167.384C360 610.888 413.056 664 480.416 676.832v167.416c-158.92-14.992-285.704-141.752-300.664-300.704z m363.832 300.704V676.832C610.944 664 664 610.888 676.856 543.544h167.384c-14.952 158.952-141.744 285.712-300.656 300.704z" fill="currentColor" p-id="9229"></path></svg>