<?xml version="1.0" standalone="no"?><!DOCTYPE svg PUBLIC "-//W3C//DTD SVG 1.1//EN" "http://www.w3.org/Graphics/SVG/1.1/DTD/svg11.dtd"><svg t="1655167448008" class="icon" viewBox="0 0 1024 1024" version="1.1" xmlns="http://www.w3.org/2000/svg" p-id="7111" xmlns:xlink="http://www.w3.org/1999/xlink" width="64" height="64"><defs><style type="text/css">@font-face { font-family: feedback-iconfont; src: url("//at.alicdn.com/t/font_1031158_u69w8yhxdu.woff2?t=1630033759944") format("woff2"), url("//at.alicdn.com/t/font_1031158_u69w8yhxdu.woff?t=1630033759944") format("woff"), url("//at.alicdn.com/t/font_1031158_u69w8yhxdu.ttf?t=1630033759944") format("truetype"); }
</style></defs><path d="M721.664 306.496h-445.44a25.664 25.664 0 0 1-17.28-23.04c0-11.52 5.76-23.04 17.28-23.04h445.44c11.52 0 17.28 11.52 17.28 23.04-0.64 11.52-5.76 23.04-17.28 23.04z m-97.28 199.68h-342.4a22.784 22.784 0 0 1-21.76-23.68c0.64-11.52 10.24-21.12 21.76-21.76h342.4c12.8 0.64 22.4 11.52 21.76 23.68-0.64 11.52-10.24 21.12-21.76 21.76z m-193.92 199.68h-154.24c-11.52 0-17.28-11.52-17.28-23.04s5.76-23.04 17.28-23.04h148.48c11.52 0 17.28 11.52 17.28 23.04s0 23.04-11.52 23.04z m382.08 0a36.608 36.608 0 0 1-23.04-5.76l-80-80a27.648 27.648 0 0 1 1.28-39.68c10.88-10.24 27.52-10.24 38.4 0l80 80c10.88 10.88 11.52 28.16 0.64 39.04l-0.64 0.64c-5.12 0-10.88 5.76-16.64 5.76z m-222.72 216.96a36.608 36.608 0 0 1-23.04-5.76l-80-80a27.648 27.648 0 0 1 1.28-39.68c10.88-10.24 27.52-10.24 38.4 0l80 80c10.88 10.88 11.52 28.16 0.64 39.04l-0.64 0.64c-3.84 4.48-10.24 7.04-16.64 5.76z m314.24 23.04l-165.76-160c-5.76-5.76-5.76-5.76-11.52-5.76l45.44-45.44c10.88-10.88 11.52-28.16 0.64-39.04l-0.64-0.64-62.72-62.72a27.456 27.456 0 0 0-39.04-0.64l-0.64 0.64-119.68 120.32c-10.88 10.88-11.52 28.16-0.64 39.04l0.64 0.64 62.72 62.72c10.88 10.88 28.16 11.52 39.04 0.64l0.64-0.64 45.44-45.44c0.64 4.48 2.56 8.32 5.76 11.52l160 160c5.76 5.76 11.52 5.76 23.04 5.76s17.28 0 23.04-5.76c6.4-12.16 3.84-26.24-5.76-35.2z"  p-id="7112"></path><path d="M168.064 940.096V83.776h685.44v513.92h56.96v-513.92a60.8 60.8 0 0 0-56.96-56.96H168.064a60.8 60.8 0 0 0-56.96 56.96v856.32c1.92 30.72 26.24 55.04 56.96 56.96h342.4v-56.96h-342.4z"  p-id="7113"></path><path d="M852.864 597.696c0 16 12.8 28.8 28.8 28.8s28.8-12.8 28.8-28.8-12.8-28.8-28.8-28.8-28.8 12.8-28.8 28.8z m-371.2 371.2c0 16 12.8 28.8 28.8 28.8s28.8-12.8 28.8-28.8-12.8-28.8-28.8-28.8-28.8 12.8-28.8 28.8z"  p-id="7114"></path></svg>