<?xml version="1.0" standalone="no"?><!DOCTYPE svg PUBLIC "-//W3C//DTD SVG 1.1//EN" "http://www.w3.org/Graphics/SVG/1.1/DTD/svg11.dtd"><svg t="1758075623738" class="icon" viewBox="0 0 1024 1024" version="1.1" xmlns="http://www.w3.org/2000/svg" p-id="5898" xmlns:xlink="http://www.w3.org/1999/xlink" width="16" height="16"><path d="M996.352 216.064A42.666667 42.666667 0 0 1 1024 256v725.333333a42.666667 42.666667 0 0 1-42.666667 42.666667H42.666667a42.666667 42.666667 0 0 1-42.666667-42.666667V554.666667a42.666667 42.666667 0 0 1 64.64-36.608l181.333333 108.8 147.370667-184.192a42.666667 42.666667 0 0 1 52.437333-11.52l226.517334 113.28 276.906666-316.544a42.666667 42.666667 0 0 1 47.146667-11.818667zM938.666667 369.493333l-223.872 255.872a42.666667 42.666667 0 0 1-51.2 10.069334l-225.152-112.554667-149.12 186.410667a42.666667 42.666667 0 0 1-55.253334 9.898666L85.333333 630.016V938.666667h853.333334V369.493333z" p-id="5899" fill="currentColor"></path><path d="M1010.56 32.938667a42.666667 42.666667 0 0 1 1.834667 60.288l-341.333334 362.666666a42.666667 42.666667 0 0 1-50.133333 8.96l-225.152-112.64-149.12 186.453334A42.666667 42.666667 0 0 1 187.733333 546.133333l-170.666666-128a42.666667 42.666667 0 0 1 51.2-68.266666l137.557333 103.168L350.72 272a42.666667 42.666667 0 0 1 52.394667-11.52l227.626666 113.834667 319.573334-339.584a42.666667 42.666667 0 0 1 60.288-1.792z" p-id="5900" fill="currentColor"></path><path d="M726.186667 115.029333a42.666667 42.666667 0 0 1 33.450666-50.218666l213.333334-42.666667a42.666667 42.666667 0 0 1 16.725333 83.712l-213.333333 42.666667a42.666667 42.666667 0 0 1-50.218667-33.493334z" p-id="5901" fill="currentColor"></path></svg>