<?xml version="1.0" standalone="no"?><!DOCTYPE svg PUBLIC "-//W3C//DTD SVG 1.1//EN" "http://www.w3.org/Graphics/SVG/1.1/DTD/svg11.dtd"><svg t="1768202645249" class="icon" viewBox="0 0 1024 1024" version="1.1" xmlns="http://www.w3.org/2000/svg" p-id="13212" xmlns:xlink="http://www.w3.org/1999/xlink" width="32" height="32"><path d="M921.635792 1024a51.182104 51.182104 0 0 1-51.182104-51.182104V563.361063a51.182104 51.182104 0 0 1 102.364208 0v409.456833a51.182104 51.182104 0 0 1-51.182104 51.182104z m-255.910521 0a51.182104 51.182104 0 0 1-51.182104-51.182104V307.092625a51.182104 51.182104 0 0 1 102.364208 0v665.725271a51.182104 51.182104 0 0 1-51.182104 51.182104z m-307.450542 0a51.182104 51.182104 0 0 1-51.182104-51.182104V51.182104a51.182104 51.182104 0 1 1 102.364208 0v921.635792a51.182104 51.182104 0 0 1-51.182104 51.182104z m-255.910521 0A51.182104 51.182104 0 0 1 51.182104 972.817896V460.638937a51.182104 51.182104 0 0 1 102.364208 0v512.178959a51.182104 51.182104 0 0 1-51.182104 51.182104z" p-id="13213" ></path></svg>