<?xml version="1.0" standalone="no"?><!DOCTYPE svg PUBLIC "-//W3C//DTD SVG 1.1//EN" "http://www.w3.org/Graphics/SVG/1.1/DTD/svg11.dtd"><svg t="1765941967863" class="icon" viewBox="0 0 1024 1024" version="1.1" xmlns="http://www.w3.org/2000/svg" p-id="2759" xmlns:xlink="http://www.w3.org/1999/xlink" width="16" height="16"><path d="M749.73184 330.32192c0.18944-70.59456-28.05248-138.36288-78.12096-188.25216-50.26816-50.45248-117.28384-78.12608-188.25728-78.12608-147.02592 0-266.37824 119.54176-266.37824 266.37824-0.18944 50.45248 14.30528 99.77344 41.41568 142.32064a266.42432 266.42432 0 0 0 88.66816 86.40512 396.35456 396.35456 0 0 0-143.07328 91.48928c-74.5472 74.55232-115.58912 173.568-115.58912 279.17824 0 16.75264 13.74208 30.49984 30.68416 30.49984 16.9472 0 30.49984-13.7472 30.49984-30.68928-0.18944-88.47872 35.2-173.568 98.07872-235.49952 60.05248-60.24704 140.81024-95.2576 225.90464-97.52064 3.57888 0.18944 6.77888 0.18944 9.78944 0.18944 146.83648 0.00512 266.37824-119.53664 266.37824-266.37312z m-262.4256 205.00992c-1.50528-0.37376-2.82112-0.37376-4.14208-0.37376h-9.6c-109.56288-4.89472-195.78368-95.2576-195.59424-204.82048 0-113.14176 92.24704-205.19424 205.19424-205.19424 113.14176 0 205.19424 92.24192 205.19424 205.19424 0 111.06816-90.35776 203.12064-201.05216 205.19424z" p-id="2760"></path><path d="M791.04 527.36c-128.47104 0-232.96 104.45824-232.96 232.96s104.48896 232.96 232.96 232.96 232.96-104.45824 232.96-232.96-104.48896-232.96-232.96-232.96z m0 414.17728c-99.87072 0-181.21728-81.34656-181.21728-181.21728s81.34656-181.21728 181.21728-181.21728 181.21728 81.34656 181.21728 181.21728-81.34656 181.21728-181.21728 181.21728z" p-id="2761"></path><path d="M791.04 630.87104a25.88672 25.88672 0 0 0-25.87648 25.93792v122.20416c0 14.29504 11.5456 25.87648 25.87648 25.87648s25.87648-11.58144 25.87648-25.87648v-122.20416a25.88672 25.88672 0 0 0-25.87648-25.93792zM765.16352 863.83104c0 14.32064 11.5456 25.93792 25.87648 25.93792s25.87648-11.6224 25.87648-25.93792c0-14.24896-11.5456-25.89184-25.87648-25.89184s-25.87648 11.64288-25.87648 25.89184z" p-id="2762"></path></svg>