<?xml version="1.0" standalone="no"?><!DOCTYPE svg PUBLIC "-//W3C//DTD SVG 1.1//EN" "http://www.w3.org/Graphics/SVG/1.1/DTD/svg11.dtd"><svg t="1756706797186" class="icon" viewBox="0 0 1024 1024" version="1.1" xmlns="http://www.w3.org/2000/svg" p-id="1240" xmlns:xlink="http://www.w3.org/1999/xlink" width="200" height="200"><path d="M186.181818 339.116883a6.649351 6.649351 0 0 1 6.649351-6.649351h512a6.649351 6.649351 0 0 1 6.64935 6.649351v452.155844c0 58.760312-47.629299 106.38961-106.38961 106.389611H292.571429c-58.760312 0-106.38961-47.629299-106.389611-106.389611V339.116883z" fill="#FFC246" p-id="1241"></path><path d="M146.285714 555.220779c36.571429 0 43.220779-36.571429 43.22078-36.571428V325.818182h405.610389V252.675325c0-13.298701-9.974026-69.818182-73.142857-69.818182s-66.493506 33.246753-66.493507 33.246753c-12.18826-34.357195-51.864935-89.766234-126.337662-89.766234s-120.798753 58.733714-132.987013 96.415585c0 0-9.309091-19.948052-46.545454-19.948052s-52.084364 33.246753-53.194806 49.87013v265.974026c0 13.298701 13.298701 36.571429 49.87013 36.571428z" fill="#FFF8EA" p-id="1242"></path><path d="M325.818182 472.103896a19.948052 19.948052 0 0 1 19.948052 19.948052v252.675325a19.948052 19.948052 0 1 1-39.896104 0V492.051948a19.948052 19.948052 0 0 1 19.948052-19.948052z m152.935065 0a19.948052 19.948052 0 0 1 19.948052 19.948052v252.675325a19.948052 19.948052 0 1 1-39.896104 0V492.051948a19.948052 19.948052 0 0 1 19.948052-19.948052z m152.935065 0a19.948052 19.948052 0 0 1 19.948052 19.948052v252.675325a19.948052 19.948052 0 1 1-39.896104 0V492.051948a19.948052 19.948052 0 0 1 19.948052-19.948052z" fill="#FFE6AB" p-id="1243"></path><path d="M329.142857 106.38961c63.567792 0 104.873558 35.02213 127.69413 69.000312a103.104831 103.104831 0 0 1 12.633766-13.052675C487.470545 146.830961 512.744727 136.311688 548.571429 136.311688c38.779013 0 67.823377 19.489247 86.508052 39.623481a142.143169 142.143169 0 0 1 21.377662 29.935376c2.433662 4.627948 4.421818 9.129558 5.844779 13.258806 1.263377 3.69039 2.633143 8.617558 2.633143 13.597922v79.792208h93.090909a26.597403 26.597403 0 0 1 26.597403 26.597402v73.142857h59.844155c55.083221 0 99.74026 44.657039 99.74026 99.74026v212.779221c0 55.083221-44.657039 99.74026-99.74026 99.74026h-64.279272c-14.595325 53.640312-63.634286 93.090909-121.902546 93.090909H292.571429c-69.771636 0-126.337662-56.566026-126.337663-126.337663V572.236468a66.227532 66.227532 0 0 1-19.948052 2.932363c-46.558753 0-69.818182-31.198753-69.818182-56.51948V252.675325c0-0.438857 0.013299-0.884364 0.046546-1.32987 0.824519-12.334545 6.316883-28.791688 17.521039-42.476052 11.762701-14.362597 30.188052-26.01226 55.575273-26.01226 16.423896 0 29.277091 3.271481 39.164675 8.012467C211.56239 151.013403 259.231584 106.38961 329.142857 106.38961zM206.12987 791.272727c0 47.742338 38.699221 86.441558 86.441559 86.441559h365.714285c47.742338 0 86.441558-38.699221 86.441559-86.441559V352.415584H206.12987v438.857143z m578.493507-6.64935h59.844155a59.844156 59.844156 0 0 0 59.844156-59.844156V512a59.844156 59.844156 0 0 0-59.844156-59.844156h-59.844155v332.467533zM329.142857 146.285714c-63.208727 0-103.576935 50.375481-114.003117 82.611533a19.948052 19.948052 0 0 1-36.358649 3.650493l-0.651636-1.256727 0.046545 0.09974 0.086442 0.179533 0.146285 0.285922 0.166234 0.30587-0.19948-0.279273a15.047481 15.047481 0 0 0-3.125195-2.872519c-3.304727-2.360519-10.805195-6.257039-25.639896-6.257039-11.842494 0-19.462649 4.980364-24.708987 11.390337-5.632 6.882078-8.132156 15.080727-8.537767 19.475948V518.649351c0 1.276675 3.337974 16.623377 29.922078 16.623376 6.955221 0 11.177558-2.067948 14.03678-4.322078 2.413714-1.901714 4.368623-4.368623 5.911272-7.008415V339.116883a26.597403 26.597403 0 0 1 26.597403-26.597402h432.207792V233.691429c-0.066494-0.272623-0.199481-0.791273-0.465455-1.575897a56.539429 56.539429 0 0 0-3.417766-7.646753 102.286961 102.286961 0 0 0-15.306805-21.390961C592.124675 188.302961 572.961247 176.207792 548.571429 176.207792c-27.34213 0-43.074494 7.766442-53.061819 16.357403-10.552519 9.096312-16.550234 20.639584-22.016 32.116363a19.948052 19.948052 0 0 1-36.810805-1.908363C426.110338 192.964156 392.045714 146.285714 329.142857 146.285714z" fill="#8E3900" p-id="1244"></path></svg>