<?xml version="1.0" standalone="no"?><!DOCTYPE svg PUBLIC "-//W3C//DTD SVG 1.1//EN" "http://www.w3.org/Graphics/SVG/1.1/DTD/svg11.dtd"><svg t="1756706785927" class="icon" viewBox="0 0 1024 1024" version="1.1" xmlns="http://www.w3.org/2000/svg" p-id="1071" xmlns:xlink="http://www.w3.org/1999/xlink" width="200" height="200"><path d="M309.194805 804.571429c38.30026 30.121558 89.766234 66.493506 209.454546 66.493506s169.558442-39.896104 202.805194-73.142857c33.246753 9.974026 76.467532 27.74774 76.467533 66.493506s-124.336208 86.441558-285.922078 86.441559c-161.579221 0-282.597403-38.699221-282.597403-86.441559 0-33.033974 46.545455-53.194805 79.792208-59.844155z" fill="#FFFFFF" p-id="1072"></path><path d="M530.53174 837.818182C326.75574 837.818182 272.576831 657.175273 265.974026 548.571429c13.298701 3.324675 112.925922 26.597403 275.948052 26.597402s251.418597-36.684468 275.948052-56.51948c-7.547013 108.603844-83.56239 319.168831-287.33839 319.168831z" fill="#C3D2E0" p-id="1073"></path><path d="M239.376623 465.454545a285.922078 53.194805 0 1 0 571.844156 0 285.922078 53.194805 0 1 0-571.844156 0Z" fill="#994728" p-id="1074"></path><path d="M422.818909 35.593974a19.954701 19.954701 0 0 1 18.937351 35.108571h0.013298l-0.086441 0.053195a55.369143 55.369143 0 0 0-5.02026 3.48426 81.421299 81.421299 0 0 0-13.737558 13.764156C412.951273 100.637922 402.285714 121.297455 402.285714 152.935065c0 28.87813 14.582026 48.832831 33.911689 73.209351C454.456519 249.171117 478.753247 277.843117 478.753247 319.168831c0 31.597714-11.822545 57.736312-23.033351 75.483429a167.470545 167.470545 0 0 1-15.592727 20.898909 133.153247 133.153247 0 0 1-6.941922 7.347532c-0.20613 0.199481-0.385662 0.352416-0.51865 0.478754l-0.166233 0.159584-0.066494 0.066493-0.026597 0.013299v0.013299c-0.013299 0-0.066494-0.039896-13.498182-14.695065l13.478234 14.708364a19.948052 19.948052 0 0 1-27.701195-28.705247l0.691532-0.664935 0.033247-0.033247v0.006649l0.019948-0.019948 0.09974-0.09974 0.904312-0.884364c0.784623-0.797922 1.954909-2.034701 3.404468-3.670441-58.102026 4.574753-108.184935 12.893091-145.035637 23.505454-22.009351 6.343481-38.167273 13.179013-48.367376 19.788468-7.872831 5.093403-9.761247 8.378182-10.193455 9.342338 0.192831 0.41226 0.631688 1.163636 1.595844 2.274078 2.274078 2.613195 6.536312 6.084156 13.631169 10.020571 14.169766 7.859532 36.006234 15.592727 64.698182 22.328519C343.239481 490.223377 423.098182 498.694649 512 498.694649c88.901818 0 168.760519-8.471273 225.831896-21.863065 28.691948-6.735792 50.521766-14.468987 64.698182-22.328519 6.96187-3.863273 11.177558-7.287688 13.491532-9.880935 0.41226-1.017351 0.910961-1.981506 1.476156-2.899117-0.871065-1.529351-3.763532-5.372675-13.21226-10.871688-12.819948-7.467221-32.734753-14.927792-59.18587-21.557195-52.596364-13.192312-126.623584-22.062545-210.159376-23.445611a19.948052 19.948052 0 0 1 0.664935-39.896103c85.543896 1.416312 162.789403 10.492675 219.202493 24.635844 28.046961 7.035013 52.071065 15.606026 69.558857 25.786182C840.39813 405.716779 857.766234 420.504935 857.766234 442.181818c0 6.110753-1.449558 11.702857-3.783481 16.736416a512.711481 512.711481 0 0 1-4.461714 37.083428c19.469299 12.022026 40.015792 33.133714 52.370286 60.602182 14.921143 33.186909 17.753766 75.436883-6.576208 121.051429-23.904416 44.823273-57.230961 66.885818-90.205091 75.928935-27.089455 7.427325-52.915532 5.798234-71.633455 2.566649C680.833662 813.415065 607.664208 854.441558 508.675325 854.441558c-61.932052 0-113.637403-16.058182-156.439273-42.110337-37.183169 7.427325-66.879169 17.148675-86.946909 27.85413-10.406234 5.552208-17.314909 10.884987-21.410909 15.506285-3.98961 4.488312-4.50161 7.340883-4.501611 8.723948 0 2.121143 1.562597 8.278442 14.468987 17.294961 12.327896 8.610909 31.471377 17.175273 56.925091 24.695689C361.418805 921.373922 432.566857 930.909091 512 930.909091c79.433143 0 150.581195-9.535169 201.229299-24.502857 25.447065-7.520416 44.597195-16.084779 56.925091-24.695689 12.90639-9.016519 14.468987-15.173818 14.468987-17.294961 0-1.629091-0.784623-5.605403-7.566961-11.822545-6.769039-6.210494-17.767065-12.939636-33.399689-19.495896a19.948052 19.948052 0 0 1 15.439792-36.784208c17.880104 7.500468 33.479481 16.377351 44.929663 26.883325 11.436883 10.492675 20.493299 24.343273 20.493299 41.219324 0 21.743377-14.814753 38.326857-31.517923 50.003117-17.281662 12.068571-40.979948 22.129039-68.468363 30.247896C669.29039 960.990753 594.152727 970.805195 512 970.805195s-157.29039-9.814442-212.533195-26.138598c-27.488416-8.118857-51.186701-18.179325-68.468363-30.247896-16.703169-11.67626-31.517922-28.25974-31.517923-50.003117 0-13.784104 6.097455-25.653195 14.54213-35.181714 8.324987-9.402182 19.655481-17.401351 32.488728-24.250182 17.228468-9.182753 38.832208-17.155325 63.554493-23.804675-26.304831-23.206234-48.274286-50.448623-66.413714-79.499636-51.931429-83.176727-73.355636-182.212156-77.378494-248.306702a19.914805 19.914805 0 0 1 0.405611-5.359376 38.532987 38.532987 0 0 1-0.445507-5.83813c0-19.768519 14.535481-33.752104 28.525715-42.80187 14.914494-9.661506 35.314701-17.81361 58.999688-24.635844 46.146494-13.285403 109.129143-22.754078 180.330389-26.790234A91.960519 91.960519 0 0 0 438.857143 319.168831c0-25.161143-13.93039-43.034597-33.911688-68.222337-18.904104-23.831273-42.555844-53.746701-42.555845-98.011429 0-41.511896 14.276156-70.722494 29.223896-89.659844a121.224312 121.224312 0 0 1 20.553143-20.526546 94.952727 94.952727 0 0 1 7.17465-5.086753 65.981506 65.981506 0 0 1 3.018805-1.815273l0.265974-0.146285 0.10639-0.059845 0.046545-0.026597 0.019948-0.013299c0.006649 0 0.019948 0 8.331636 15.57278l-8.311688-15.579429zM210.817662 493.847273c8.830338 56.93839 29.257143 126.783169 66.673039 186.707117 47.077403 75.403636 120.060675 133.991065 231.184624 133.991065 111.150545 0 184.712312-58.620675 232.494545-134.097455 37.502338-59.245714 58.494338-128.166234 67.982961-184.73226-17.108779 7.686649-38.286961 14.336-62.204675 19.948052C686.099948 529.953247 603.03626 538.597403 512 538.597403c-91.03626 0-174.099948-8.644156-234.948156-22.920312-25.832727-6.064208-48.467117-13.338597-66.227532-21.823169z m630.212156 45.601246c-12.281351 52.390234-33.299948 110.452364-66.14774 162.337247a410.291532 410.291532 0 0 1-11.483429 17.168624c9.867636 0.079792 20.486649-0.930909 31.158857-3.856624 22.601143-6.197195 46.904519-21.257974 65.555949-56.226909 18.219221-34.177662 15.512935-63.408208 5.392623-85.90961a102.81226 102.81226 0 0 0-24.47626-33.512728zM607.604364 36.418494a19.948052 19.948052 0 1 1 21.570493 33.552623c-4.721039 3.038753-15.25361 12.773403-24.615896 27.774338-9.176104 14.695065-16.091429 32.681558-16.091429 51.864935 0 31.744 11.077818 48.054857 25.068052 64.259324 14.070026 16.290909 36.152519 36.544831 44.218182 70.802286a19.948052 19.948052 0 0 1-38.832208 9.149506c-5.233039-22.262026-18.059636-33.592519-35.574026-53.873038-17.594182-20.366961-34.776104-45.614545-34.776103-90.338078 0-28.691948 10.259948-53.926234 22.142337-72.983273 11.696208-18.73787 26.092052-33.273351 36.890598-40.208623z" fill="#6B0A0C" p-id="1075"></path></svg>