<?xml version="1.0" standalone="no"?><!DOCTYPE svg PUBLIC "-//W3C//DTD SVG 1.1//EN" "http://www.w3.org/Graphics/SVG/1.1/DTD/svg11.dtd"><svg t="1725238088964" class="icon" viewBox="0 0 1024 1024" version="1.1" xmlns="http://www.w3.org/2000/svg" p-id="23520" xmlns:xlink="http://www.w3.org/1999/xlink" width="32" height="32"><path d="M116 0.8C96 0.8 80 16.8 80 37.6v948.8c0 20.8 16 37.6 36 37.6h792c20 0 36-16.8 36-37.6V224L728 0.8H116z" fill="#BBC9D7" p-id="23521"></path><path d="M727.2 0v186.4c0 20.8 16 37.6 36 37.6h180l-216-224z" fill="#E1EBF3" p-id="23522"></path><path d="M678.4 496.8c-7.2 0-14.4 1.6-21.6 3.2-14.4-60.8-69.6-105.6-135.2-105.6-58.4 0-108 36-128.8 86.4-4-0.8-6.4-0.8-10.4-0.8-38.4 0-69.6 30.4-69.6 68v0.8c-29.6 4-52.8 28.8-52.8 59.2s23.2 55.2 52.8 59.2v0.8h364c48 0 86.4-38.4 86.4-85.6s-38.4-85.6-84.8-85.6z" fill="#FFFFFF" p-id="23523"></path></svg>