<?xml version="1.0" standalone="no"?><!DOCTYPE svg PUBLIC "-//W3C//DTD SVG 1.1//EN" "http://www.w3.org/Graphics/SVG/1.1/DTD/svg11.dtd"><svg t="1725237258137" class="icon" viewBox="0 0 1024 1024" version="1.1" xmlns="http://www.w3.org/2000/svg" p-id="6085" width="32" height="32" xmlns:xlink="http://www.w3.org/1999/xlink"><path d="M546.133333 438.272V409.6h170.666667v28.672h-68.266667V614.4h-34.133333v-176.128h-68.266667zM379.630933 409.6h37.307734l43.861333 72.260267L504.661333 409.6h37.307734l-62.907734 98.952533L546.133333 614.4h-37.307733L460.8 535.210667 412.7744 614.4H375.466667l66.56-105.847467L379.630933 409.6zM204.8 438.272V409.6h170.666667v28.672H307.2V614.4H273.066667v-176.128H204.8z m750.933333 533.265067c0 10.1376-8.260267 18.3296-18.432 18.3296H154.965333a18.363733 18.363733 0 0 1-18.432-18.3296v-275.387734h694.545067c20.309333 0 36.7616-16.349867 36.7616-36.5568v-296.277333c0-20.206933-16.452267-36.590933-36.7616-36.590933H136.533333V52.462933C136.533333 42.325333 144.7936 34.133333 154.965333 34.133333h590.984534c4.9152 0 9.591467 1.877333 13.038933 5.3248l2.218667 2.184534v153.463466c0 18.261333 14.7456 33.1776 33.109333 33.4848h154.8288l1.262933 1.2288c3.413333 3.4816 5.358933 8.157867 5.3248 13.0048v728.746667z m17.885867-766.0544L781.448533 16.008533A55.944533 55.944533 0 0 0 742.365867 0H148.992C118.442667 0 93.627733 24.439467 93.627733 54.613333v272.9984h-22.528C50.619733 327.611733 34.133333 343.893333 34.133333 363.997867v331.264h59.426134v0.546133H34.2016l59.426133 59.050667V969.386667c0 30.173867 24.7808 54.613333 55.364267 54.613333h785.476267c30.6176 0 55.3984-24.439467 55.3984-54.613333V244.053333a54.272 54.272 0 0 0-16.247467-38.570666z" fill="#3f89ff" p-id="6086"></path></svg>