<?xml version="1.0" standalone="no"?><!DOCTYPE svg PUBLIC "-//W3C//DTD SVG 1.1//EN" "http://www.w3.org/Graphics/SVG/1.1/DTD/svg11.dtd"><svg t="1724811854252" class="icon" viewBox="0 0 1024 1024" version="1.1" xmlns="http://www.w3.org/2000/svg" p-id="14061" xmlns:xlink="http://www.w3.org/1999/xlink" width="32" height="32"><path d="M887.893333 324.266667H155.733333c-19.2 0-34.986667-15.36-34.986666-34.133334s15.786667-34.133333 34.986666-34.133333h732.16c19.2 0 34.986667 15.36 34.986667 34.133333s-15.786667 34.133333-34.986667 34.133334z" fill="#1a73e8" p-id="14062"></path><path d="M429.653333 280.746667c-0.853333-5.12-1.28-10.666667-1.28-16.213334 0-51.626667 42.24-93.866667 93.866667-93.866666s93.866667 42.24 93.866667 93.866666c0 5.546667-0.426667 10.666667-1.28 16.213334h68.693333c0.426667-5.12 0.853333-10.666667 0.853333-16.213334 0-89.6-72.533333-162.133333-162.133333-162.133333s-162.133333 72.533333-162.133333 162.133333c0 5.546667 0.426667 10.666667 0.853333 16.213334h68.693333zM760.746667 288.853333V853.333333h-477.866667V288.853333h-68.266667v579.413334c0 29.44 23.893333 53.333333 53.333334 53.333333h507.733333c29.44 0 53.333333-23.893333 53.333333-53.333333V288.853333h-68.266666z" fill="#1a73e8" p-id="14063"></path><path d="M402.773333 741.546667h-0.853333c-18.773333 0-33.706667-14.933333-33.706667-33.706667v-239.786667c0-18.773333 14.933333-33.706667 33.706667-33.706666h0.853333c18.773333 0 33.706667 14.933333 33.706667 33.706666V708.266667c0 18.346667-14.933333 33.28-33.706667 33.28zM522.24 741.546667h-0.853333c-18.773333 0-33.706667-14.933333-33.706667-33.706667v-239.786667c0-18.773333 14.933333-33.706667 33.706667-33.706666h0.853333c18.773333 0 33.706667 14.933333 33.706667 33.706666V708.266667c0 18.346667-14.933333 33.28-33.706667 33.28zM641.706667 741.546667h-0.853334c-18.773333 0-33.706667-14.933333-33.706666-33.706667v-239.786667c0-18.773333 14.933333-33.706667 33.706666-33.706666h0.853334c18.773333 0 33.706667 14.933333 33.706666 33.706666V708.266667c0 18.346667-14.933333 33.28-33.706666 33.28z" fill="#1a73e8" p-id="14064"></path></svg>